<svg width="21" height="22" viewBox="0 0 21 22" fill="none" xmlns="http://www.w3.org/2000/svg">
<path fill-rule="evenodd" clip-rule="evenodd" d="M11.4122 1.31156C11.4122 0.850405 11.786 0.476562 12.2472 0.476562H19.9573C20.4185 0.476562 20.7923 0.850405 20.7923 1.31156V10.997C20.7923 11.3221 20.6036 11.6176 20.3087 11.7544C20.0138 11.8912 19.6663 11.8445 19.4181 11.6345L18.4362 10.8042V19.0124C18.4362 20.3959 17.3147 21.5174 15.9312 21.5174H2.71252C1.32905 21.5174 0.20752 20.3959 0.20752 19.0124V3.99344C0.20752 2.60997 1.32905 1.48844 2.71252 1.48844H11.4122V1.31156ZM11.4122 3.15844H2.71252C2.25136 3.15844 1.87752 3.53228 1.87752 3.99344V19.0124C1.87752 19.4735 2.25136 19.8474 2.71252 19.8474H15.9312C16.3924 19.8474 16.7662 19.4735 16.7662 19.0124V9.39184L16.2189 8.92894L12.7641 11.6527C12.5129 11.8508 12.1706 11.8879 11.8828 11.7483C11.5949 11.6087 11.4122 11.3169 11.4122 10.997V3.15844ZM18.1359 8.3631C18.1387 8.36541 18.1415 8.36774 18.1442 8.37009L19.1223 9.19726V2.14656H13.0822V9.27535L15.7204 7.19533C16.032 6.94963 16.4735 6.95721 16.7766 7.21347L18.1359 8.3631ZM9.42642 9.27077L4.49325 9.27077C4.03209 9.27077 3.65825 8.89693 3.65825 8.43577C3.65825 7.97462 4.03209 7.60077 4.49325 7.60077L9.42642 7.60077C9.88758 7.60077 10.2614 7.97461 10.2614 8.43577C10.2614 8.89693 9.88758 9.27077 9.42642 9.27077ZM9.42642 13.049L4.49325 13.049C4.03209 13.049 3.65825 12.6751 3.65825 12.214C3.65825 11.7528 4.03209 11.379 4.49325 11.379L9.42642 11.379C9.88758 11.379 10.2614 11.7528 10.2614 12.214C10.2614 12.6751 9.88758 13.049 9.42642 13.049ZM3.65825 15.9775C3.65825 15.5163 4.03209 15.1425 4.49325 15.1425H14.1503C14.6115 15.1425 14.9853 15.5163 14.9853 15.9775C14.9853 16.4386 14.6115 16.8125 14.1503 16.8125H4.49325C4.03209 16.8125 3.65825 16.4386 3.65825 15.9775Z" fill="#2E3032"/>
</svg>
