<svg width="22" height="18" viewBox="0 0 22 18" fill="none" xmlns="http://www.w3.org/2000/svg">
<path fill-rule="evenodd" clip-rule="evenodd" d="M4.5379 0C2.03169 0 0 1.99368 0 4.453C0 6.91233 2.03169 8.90601 4.5379 8.90601C7.04411 8.90601 9.07579 6.91233 9.07579 4.453C9.07579 1.99368 7.04411 0 4.5379 0ZM2.48328 7.2954H4.47473C5.04528 7.2954 5.53537 7.18504 5.94499 6.96432C6.35645 6.7436 6.6719 6.42687 6.89134 6.01414C7.11261 5.60141 7.22325 5.10793 7.22325 4.5337C7.22325 3.96126 7.11261 3.46957 6.89134 3.05863C6.6719 2.6477 6.35828 2.33276 5.95048 2.11384C5.54268 1.89312 5.05625 1.78276 4.49118 1.78276H2.48328V7.2954ZM3.67102 6.29677H4.42535C4.77646 6.29677 5.07179 6.23576 5.31135 6.11374C5.55274 5.98992 5.73378 5.79881 5.85447 5.5404C5.977 5.2802 6.03826 4.94463 6.03826 4.5337C6.03826 4.12635 5.977 3.79347 5.85447 3.53507C5.73378 3.27666 5.55365 3.08645 5.3141 2.96442C5.07454 2.8424 4.7792 2.78138 4.42809 2.78138H3.67102V6.29677Z" fill="#2E3032"/>
<path fill-rule="evenodd" clip-rule="evenodd" d="M10.9854 3.63565C10.5402 3.63565 10.1792 3.98987 10.1792 4.42681C10.1792 4.86375 10.5402 5.21796 10.9854 5.21796H19.5813C19.7474 5.21796 19.9017 5.26722 20.03 5.35167L12.5021 10.7946L9.11026 8.41021C8.74829 8.15575 8.24464 8.23742 7.98533 8.59263C7.72602 8.94783 7.80925 9.44206 8.17123 9.69651L12.0392 12.4156C12.3232 12.6152 12.7058 12.6127 12.987 12.4094L20.3875 7.05857V15.6265C20.3875 16.0635 20.0266 16.4177 19.5813 16.4177H5.43861C4.99333 16.4177 4.63237 16.0635 4.63237 15.6265V10.8125C4.63237 10.3755 4.27141 10.0213 3.82614 10.0213C3.38087 10.0213 3.0199 10.3755 3.0199 10.8125V15.6265C3.0199 16.9374 4.10279 18 5.43861 18H19.5813C20.9171 18 22 16.9374 22 15.6265V6.00911C22 4.69829 20.9171 3.63565 19.5813 3.63565H10.9854ZM20.3875 7.05857L21.2369 6.44443C21.5954 6.18524 21.6719 5.68997 21.4077 5.3382C21.1436 4.98644 20.6389 4.91139 20.2804 5.17057L20.03 5.35167C20.2456 5.49367 20.3875 5.73512 20.3875 6.00911V7.05857Z" fill="#2E3032"/>
<path d="M21.2369 6.44443C21.5954 6.18524 21.6719 5.68997 21.4077 5.3382C21.1436 4.98644 20.6389 4.91139 20.2804 5.17057L20.03 5.35167C20.2456 5.49367 20.3875 5.73512 20.3875 6.00911V7.05857L21.2369 6.44443Z" fill="#2E3032"/>
</svg>
