<svg width="22" height="19" viewBox="0 0 22 19" fill="none" xmlns="http://www.w3.org/2000/svg">
<path d="M6.15811 6.72224V2.67C6.15811 1.74768 6.9058 1 7.82811 1H18.695C19.6173 1 20.365 1.74768 20.365 2.67V15.0459C20.365 15.9682 19.6173 16.7159 18.695 16.7159H16.0496M6.78086 13.9847L4.20782 10.8638L1.63477 13.9847M9.41376 17.8848H7.20786C5.551 17.8848 4.20786 16.5417 4.20786 14.8848V12.4242M9.41376 13.5951L11.9868 16.7159L14.5599 13.5951M6.78086 9.6949H8.98677C10.6436 9.6949 11.9868 11.0381 11.9868 12.6949V15.1555" stroke="#262829" stroke-width="1.67" stroke-linecap="round" stroke-linejoin="round"/>
<path d="M6.15811 6.72224V2.67C6.15811 1.74768 6.9058 1 7.82811 1H18.695C19.6173 1 20.365 1.74768 20.365 2.67V15.0459C20.365 15.9682 19.6173 16.7159 18.695 16.7159H16.0496M6.78086 13.9847L4.20782 10.8638L1.63477 13.9847M9.41376 17.8848H7.20786C5.551 17.8848 4.20786 16.5417 4.20786 14.8848V12.4242M9.41376 13.5951L11.9868 16.7159L14.5599 13.5951M6.78086 9.6949H8.98677C10.6436 9.6949 11.9868 11.0381 11.9868 12.6949V15.1555" stroke="black" stroke-opacity="0.2" stroke-width="1.67" stroke-linecap="round" stroke-linejoin="round"/>
<path d="M6.15811 6.72224V2.67C6.15811 1.74768 6.9058 1 7.82811 1H18.695C19.6173 1 20.365 1.74768 20.365 2.67V15.0459C20.365 15.9682 19.6173 16.7159 18.695 16.7159H16.0496M6.78086 13.9847L4.20782 10.8638L1.63477 13.9847M9.41376 17.8848H7.20786C5.551 17.8848 4.20786 16.5417 4.20786 14.8848V12.4242M9.41376 13.5951L11.9868 16.7159L14.5599 13.5951M6.78086 9.6949H8.98677C10.6436 9.6949 11.9868 11.0381 11.9868 12.6949V15.1555" stroke="black" stroke-opacity="0.2" stroke-width="1.67" stroke-linecap="round" stroke-linejoin="round"/>
</svg>
