<svg width="21" height="19" viewBox="0 0 21 19" fill="none" xmlns="http://www.w3.org/2000/svg">
<path fill-rule="evenodd" clip-rule="evenodd" d="M2.46013 1.83406C2.29435 1.83406 2.13535 1.89992 2.01812 2.01715C1.9009 2.13438 1.83504 2.29337 1.83504 2.45916V12.6798C1.83504 12.8456 1.9009 13.0046 2.01812 13.1218C2.13535 13.2391 2.29435 13.3049 2.46013 13.3049H4.94243C4.94412 13.3049 4.9458 13.3049 4.94749 13.3049H14.1409C14.3067 13.3049 14.4657 13.2391 14.5829 13.1218C14.7001 13.0046 14.766 12.8456 14.766 12.6798V4.6493C14.766 4.48351 14.7001 4.32452 14.5829 4.20729C14.4657 4.09006 14.3067 4.0242 14.1409 4.0242H7.57046C7.29128 4.0242 7.03057 3.88467 6.8757 3.65238L5.66349 1.83406H2.46013ZM16.436 7.50506V12.6798C16.436 13.2885 16.1942 13.8723 15.7638 14.3027C15.3334 14.7331 14.7496 14.9749 14.1409 14.9749H5.76352L5.73932 16.1674C5.74106 16.3307 5.80672 16.487 5.92236 16.6027C6.03959 16.7199 6.19859 16.7858 6.36437 16.7858H18.0451C18.2109 16.7858 18.3699 16.7199 18.4871 16.6027C18.6044 16.4855 18.6702 16.3265 18.6702 16.1607V8.13016C18.6702 7.96437 18.6044 7.80538 18.4871 7.68815C18.3699 7.57092 18.2109 7.50506 18.0451 7.50506H16.436ZM4.09317 14.9749L4.06945 16.1437L4.06928 16.1607C4.06928 16.7694 4.31108 17.3531 4.7415 17.7835C5.17191 18.214 5.75568 18.4558 6.36437 18.4558H18.0451C18.6538 18.4558 19.2376 18.214 19.668 17.7835C20.0984 17.3531 20.3402 16.7694 20.3402 16.1607V8.13016C20.3402 7.52146 20.0984 6.93769 19.668 6.50728C19.2376 6.07686 18.6538 5.83506 18.0451 5.83506H16.436V4.6493C16.436 4.0406 16.1942 3.45683 15.7638 3.02642C15.3334 2.59601 14.7496 2.3542 14.1409 2.3542H8.01734L6.80513 0.535888C6.65027 0.303592 6.38955 0.164062 6.11037 0.164062H2.46013C1.85144 0.164062 1.26767 0.405866 0.837257 0.83628C0.406843 1.26669 0.165039 1.85046 0.165039 2.45916V12.6798C0.165039 13.2885 0.406843 13.8723 0.837257 14.3027C1.26767 14.7331 1.85144 14.9749 2.46013 14.9749H4.09317Z" fill="#2E3032"/>
</svg>
