<svg width="22" height="20" viewBox="0 0 22 20" fill="none" xmlns="http://www.w3.org/2000/svg">
<path d="M20.3657 16.7131V8.96133C20.3657 8.46021 20.1407 7.98557 19.7527 7.6684L12.057 1.37707C11.442 0.874311 10.558 0.874311 9.94301 1.37707L2.24729 7.6684C1.85931 7.98557 1.63428 8.46021 1.63428 8.96133V16.7131C1.63428 17.6355 2.38196 18.3831 3.30428 18.3831L6.65913 18.3831C7.21142 18.3831 7.65913 17.9354 7.65913 17.3831V11.1334C7.65913 10.2111 8.40681 9.46338 9.32913 9.46338H12.6709C13.5932 9.46338 14.3409 10.2111 14.3409 11.1334L14.3755 17.3887C14.3786 17.9388 14.8254 18.3831 15.3755 18.3831H18.6957C19.618 18.3831 20.3657 17.6355 20.3657 16.7131Z" stroke="#262829" stroke-width="1.67" stroke-linecap="round" stroke-linejoin="round"/>
<path d="M20.3657 16.7131V8.96133C20.3657 8.46021 20.1407 7.98557 19.7527 7.6684L12.057 1.37707C11.442 0.874311 10.558 0.874311 9.94301 1.37707L2.24729 7.6684C1.85931 7.98557 1.63428 8.46021 1.63428 8.96133V16.7131C1.63428 17.6355 2.38196 18.3831 3.30428 18.3831L6.65913 18.3831C7.21142 18.3831 7.65913 17.9354 7.65913 17.3831V11.1334C7.65913 10.2111 8.40681 9.46338 9.32913 9.46338H12.6709C13.5932 9.46338 14.3409 10.2111 14.3409 11.1334L14.3755 17.3887C14.3786 17.9388 14.8254 18.3831 15.3755 18.3831H18.6957C19.618 18.3831 20.3657 17.6355 20.3657 16.7131Z" stroke="black" stroke-opacity="0.2" stroke-width="1.67" stroke-linecap="round" stroke-linejoin="round"/>
<path d="M20.3657 16.7131V8.96133C20.3657 8.46021 20.1407 7.98557 19.7527 7.6684L12.057 1.37707C11.442 0.874311 10.558 0.874311 9.94301 1.37707L2.24729 7.6684C1.85931 7.98557 1.63428 8.46021 1.63428 8.96133V16.7131C1.63428 17.6355 2.38196 18.3831 3.30428 18.3831L6.65913 18.3831C7.21142 18.3831 7.65913 17.9354 7.65913 17.3831V11.1334C7.65913 10.2111 8.40681 9.46338 9.32913 9.46338H12.6709C13.5932 9.46338 14.3409 10.2111 14.3409 11.1334L14.3755 17.3887C14.3786 17.9388 14.8254 18.3831 15.3755 18.3831H18.6957C19.618 18.3831 20.3657 17.6355 20.3657 16.7131Z" stroke="black" stroke-opacity="0.2" stroke-width="1.67" stroke-linecap="round" stroke-linejoin="round"/>
</svg>
