<svg width="22" height="22" viewBox="0 0 22 22" fill="none" xmlns="http://www.w3.org/2000/svg">
<path fill-rule="evenodd" clip-rule="evenodd" d="M11.4186 2.50901C11.1597 2.35908 10.8405 2.35908 10.5816 2.50901L2.91511 6.94945C2.65733 7.09876 2.49861 7.3741 2.49861 7.672V8.13958C2.53139 8.15573 2.56349 8.17423 2.59469 8.1951L7.1233 11.2249L7.13921 11.2341C8.16764 10.2924 9.53778 9.71778 11.0421 9.71778C12.5296 9.71778 13.8858 10.2796 14.9103 11.2025L19.4054 8.1951C19.4366 8.1742 19.4688 8.15569 19.5016 8.13952V7.672C19.5016 7.3741 19.3429 7.09876 19.0851 6.94945L11.4186 2.50901ZM19.5016 10.14L15.9822 12.4946C16.5157 13.3701 16.8231 14.3985 16.8231 15.4987C16.8231 16.2104 16.6945 16.8921 16.4592 17.5217H18.6666C19.1277 17.5217 19.5016 17.1479 19.5016 16.6867V10.14ZM15.4899 19.1917H18.6666C20.0501 19.1917 21.1716 18.0702 21.1716 16.6867V7.672C21.1716 6.77829 20.6954 5.95227 19.9221 5.50434L12.2556 1.06391C11.479 0.614114 10.5212 0.614114 9.74459 1.06391L2.07811 5.50435C1.30475 5.95227 0.828613 6.77829 0.828613 7.672V16.6867C0.828613 18.0702 1.95014 19.1917 3.33361 19.1917H6.59432C7.65472 20.4675 9.25357 21.2797 11.0421 21.2797C12.8307 21.2797 14.4295 20.4675 15.4899 19.1917ZM5.62501 17.5217C5.38977 16.8921 5.26117 16.2104 5.26117 15.4987C5.26117 14.4153 5.55922 13.4014 6.07782 12.5347L2.49861 10.1401V16.6867C2.49861 17.1479 2.87246 17.5217 3.33361 17.5217H5.62501ZM7.90953 12.8365C7.29936 13.5538 6.93117 14.4833 6.93117 15.4987C6.93117 17.7691 8.7717 19.6097 11.0421 19.6097C13.3125 19.6097 15.1531 17.7691 15.1531 15.4987C15.1531 14.4818 14.7838 13.5511 14.1721 12.8334C14.1679 12.8287 14.1638 12.8238 14.1597 12.819C13.4058 11.9427 12.2888 11.3878 11.0421 11.3878C9.79698 11.3878 8.68114 11.9413 7.92727 12.8158C7.92145 12.8228 7.91554 12.8297 7.90953 12.8365ZM11.0422 12.6853C11.5034 12.6853 11.8772 13.0591 11.8772 13.5203L11.8772 15.4611L12.4301 14.9082C12.7562 14.5821 13.2849 14.5821 13.611 14.9082C13.9371 15.2343 13.9371 15.763 13.611 16.0891L11.6326 18.0675C11.3065 18.3935 10.7778 18.3935 10.4518 18.0675L8.47337 16.0891C8.14729 15.763 8.14729 15.2343 8.47337 14.9082C8.79946 14.5821 9.32815 14.5821 9.65424 14.9082L10.2072 15.4612L10.2072 13.5203C10.2072 13.0591 10.581 12.6853 11.0422 12.6853Z" fill="#2E3032"/>
</svg>
