<svg width="20" height="18" viewBox="0 0 20 18" fill="none" xmlns="http://www.w3.org/2000/svg">
<path d="M9.1484 17.8632C4.44632 17.8632 0.634766 14.0517 0.634766 9.34958C0.634766 4.64749 4.44632 0.83594 9.1484 0.83594C10.4703 0.834947 11.7742 1.14224 12.9565 1.7334C13.5578 2.03403 14.1191 2.40386 14.6299 2.83392C15.2418 3.34907 14.8189 4.24139 14.0191 4.24139C13.7826 4.24139 13.556 4.15284 13.3705 4.00622C12.4415 3.27212 11.3354 2.79148 10.1604 2.61478C8.86426 2.41985 7.53938 2.60308 6.34477 3.14247C5.15015 3.68185 4.13655 4.55449 3.42559 5.65567C2.71464 6.75684 2.33653 8.03978 2.33664 9.35052C2.33675 10.6613 2.71507 11.9441 3.42621 13.0452C4.13735 14.1462 5.15109 15.0187 6.3458 15.5579C7.5405 16.0971 8.86542 16.2801 10.1616 16.085C11.3365 15.9081 12.4425 15.4273 13.3713 14.693C13.5568 14.5463 13.7835 14.4578 14.02 14.4578C14.8198 14.4578 15.2427 15.3501 14.6308 15.8652C14.1199 16.2954 13.5584 16.6653 12.957 16.9659C11.7745 17.5571 10.4704 17.8643 9.1484 17.8632ZM15.5954 12.3651C15.3989 12.5222 15.1079 12.3824 15.1079 12.1308V10.5009C15.1079 10.3353 14.9736 10.2009 14.8079 10.2009H8.59704C8.43135 10.2009 8.29704 10.0666 8.29704 9.90094V8.79821C8.29704 8.63253 8.43135 8.49821 8.59704 8.49821H14.8079C14.9736 8.49821 15.1079 8.3639 15.1079 8.19821V6.56831C15.1079 6.31676 15.3989 6.17691 15.5954 6.33405L19.0719 9.11532C19.2221 9.23541 19.2221 9.46374 19.0719 9.58384L15.5954 12.3651Z" fill="#25282B"/>
</svg>
