<svg width="32" height="30" viewBox="0 0 32 30" fill="none" xmlns="http://www.w3.org/2000/svg">
<path d="M10.1306 10.6406C4.58909 10.6406 0.0976562 14.9712 0.0976562 20.319C0.0976562 25.6664 4.58909 30.0036 10.1306 30.0036C15.6726 30.0036 20.1641 25.6664 20.1641 20.319C20.1641 14.9717 15.6726 10.6406 10.1306 10.6406ZM9.60821 13.7401C13.1902 13.7401 16.0934 16.5043 16.0934 19.9141C16.0934 23.3247 13.1902 26.0885 9.60821 26.0885C6.02576 26.0885 3.12307 23.3243 3.12307 19.9141C3.12307 16.5039 6.02619 13.7401 9.60821 13.7401Z" fill="#4B4747"/>
<path d="M16.8474 0.000491228C16.5274 -0.00915081 16.2697 0.124085 15.9879 0.317802C15.6426 0.555347 15.3441 0.940591 15.1666 1.32014C14.2581 3.2595 13.3999 5.1283 12.5334 6.99009C12.3204 7.44765 12.075 7.95956 11.7051 8.30317C11.4741 8.5188 11.2445 8.71295 10.9399 8.62661C10.6252 8.53764 10.52 8.38731 10.4113 8.07921C10.2724 7.68651 10.2803 6.91822 10.2369 6.50405C10.1519 5.69543 10.2579 4.86359 10.0502 4.07645C9.95245 3.70698 9.62155 2.88521 9.10964 2.85673C8.32864 2.81334 7.76458 4.00676 7.42974 4.67425C6.64742 6.23451 6.39191 7.98103 6.409 10.5121C6.41075 10.7825 6.43091 11.3216 6.43091 11.3216C6.43091 11.3216 7.54325 10.9477 8.10775 10.836C8.4347 10.7715 8.76735 10.7198 9.10395 10.6869C9.44142 10.6536 9.78459 10.637 10.1308 10.637C10.4771 10.637 10.8202 10.6541 11.1577 10.6869C11.4952 10.7198 11.8269 10.7715 12.153 10.836C12.8069 10.9648 13.4394 11.1515 14.0394 11.3961C14.6394 11.6411 15.2047 11.9382 15.7385 12.2866C16.2724 12.6342 16.772 13.0313 17.2265 13.4691C17.6801 13.9069 18.0916 14.3855 18.4523 14.9005C18.8126 15.415 19.1194 15.9708 19.3736 16.5497C19.6274 17.1287 19.825 17.7366 19.9587 18.3673C20.0253 18.6819 20.0801 19.0001 20.1143 19.3253C20.1485 19.651 20.1634 19.981 20.1634 20.3154C20.1634 20.6498 20.148 20.9794 20.1143 21.3046C20.0801 21.6302 20.0253 21.9541 19.9587 22.2692C19.825 22.8999 19.6274 23.5073 19.3736 24.0867C19.2719 24.319 19.1698 24.5303 19.0501 24.7529L19.1685 24.7775C20.3067 25.0067 21.4024 25.1154 22.5603 25.0514C24.3603 24.9515 26.24 24.8314 27.8262 23.9741C28.3609 23.6853 29.066 23.2562 29.0831 22.6488C29.0985 22.0961 28.5414 21.6846 28.0685 21.3979C27.593 21.1091 26.8896 21.0719 26.3382 20.9934C25.5191 20.8764 24.8148 20.9816 23.9426 20.8812C23.2322 20.7997 22.1777 20.6581 22.0256 19.9227C21.881 19.2223 22.7457 18.6175 23.258 18.1174C24.2902 17.1103 25.5918 16.4226 26.7243 15.5286C28.0308 14.4964 29.2861 13.5611 30.4703 12.3914C30.8476 12.0197 31.211 11.7327 31.4919 11.2834C31.6913 10.9644 31.931 10.4634 31.8964 10.0887C31.8727 9.83932 31.7364 9.65086 31.5291 9.50974C31.1921 9.28139 30.8275 9.30769 30.4212 9.31076C30.0004 9.31383 29.6481 9.41419 29.251 9.55356C28.1588 9.93705 27.128 10.4866 26.0893 10.9972C25.321 11.3746 24.643 11.9676 23.8173 12.1924C23.3216 12.327 22.6032 12.6601 22.2802 12.2608C21.9651 11.872 22.4604 11.272 22.6536 10.8105C23.0494 9.86211 23.6919 9.03158 24.2349 8.15941C24.8428 7.18162 25.5568 6.27264 26.1138 5.26504C26.3877 4.77023 26.7322 4.27893 26.83 3.72188C26.8996 3.3213 26.9119 2.86856 26.7243 2.50786C26.6161 2.30099 26.4158 2.11385 26.1883 2.05994C25.7777 1.96265 25.3227 2.14409 24.9375 2.31502C24.3712 2.56659 23.6056 3.11838 23.1765 3.56629C21.7179 5.08842 20.539 6.42735 19.1558 7.8421C18.682 8.32639 18.0461 9.19023 17.425 8.91894C16.996 8.73092 17.0849 8.02092 17.1393 7.56204C17.3041 6.16833 17.6017 4.7378 17.7621 3.31735C17.8379 2.64767 17.9808 1.91838 17.9233 1.30085C17.8922 0.959875 17.8537 0.633798 17.6556 0.354617C17.5153 0.156517 17.2304 0.0495782 16.9903 0.0123248C16.9403 0.00618898 16.8899 0.00268296 16.8443 0.00136813L16.8474 0.000491228ZM9.60928 13.7369C9.16136 13.7369 8.72397 13.779 8.30235 13.8614C7.87985 13.9433 7.46392 14.0538 7.07605 14.2098L7.05414 14.2313L7.06948 14.272C7.79307 16.1755 8.65866 18.1148 9.98225 19.6742C11.3142 21.2437 13.03 22.4923 14.8686 23.4486L14.9115 23.471C14.9383 23.4355 14.9606 23.4017 14.986 23.3653C15.2192 23.0366 15.4195 22.683 15.5838 22.313C15.7478 21.944 15.877 21.5575 15.9629 21.1556C16.0497 20.7541 16.094 20.3373 16.094 19.9109C16.094 19.4844 16.0497 19.0681 15.9629 18.6662C15.877 18.2643 15.7478 17.8781 15.5838 17.5082C15.4195 17.1397 15.2192 16.7855 14.986 16.4568C14.7533 16.1281 14.489 15.827 14.1954 15.5483C13.9022 15.2691 13.5822 15.0105 13.2369 14.7888C12.892 14.567 12.5234 14.3785 12.1355 14.2225C11.7476 14.0665 11.3374 13.9438 10.9153 13.8614C10.4933 13.779 10.0563 13.7369 9.60928 13.7369Z" fill="#D51100"/>
<path d="M19.0489 24.7492C19.1686 24.5266 19.2711 24.3149 19.3724 24.0826C19.6266 23.5032 19.8242 22.8957 19.9579 22.2651C20.0241 21.9499 20.0784 21.6261 20.1131 21.3004C20.1472 20.9748 20.1626 20.6448 20.1626 20.3108C20.1626 19.9768 20.1472 19.6468 20.1131 19.3212C20.0784 18.9955 20.0241 18.6782 19.9579 18.3627C19.8238 17.7324 19.6266 17.1241 19.3724 16.5451C19.1182 15.9662 18.8118 15.4109 18.4511 14.8959C18.0904 14.3809 17.6789 13.9019 17.2248 13.4645C16.7717 13.0267 16.2711 12.6296 15.7373 12.282C15.2035 11.934 14.6386 11.6369 14.0381 11.3919C13.4377 11.1469 12.8057 10.9606 12.1518 10.8318C11.8257 10.7674 11.494 10.7156 11.1565 10.6823C10.819 10.649 10.4763 10.6328 10.1296 10.6328C9.78336 10.6328 9.44019 10.6495 9.10272 10.6823C8.76481 10.7156 8.43348 10.7674 8.10653 10.8318C7.54203 10.9431 6.95518 11.1123 6.42969 11.3113C6.49368 12.101 6.71457 13.3168 7.05423 14.228L7.08009 14.2183C7.4684 14.0623 7.87775 13.9396 8.2998 13.8572C8.72186 13.7748 9.15926 13.7327 9.60718 13.7327C10.0547 13.7327 10.4916 13.7752 10.9137 13.8572C11.3357 13.9392 11.7455 14.0623 12.1338 14.2183C12.5217 14.3739 12.8903 14.5624 13.2352 14.7846C13.5806 15.0064 13.9001 15.2645 14.1937 15.5441C14.4874 15.8233 14.7512 16.124 14.9848 16.4527C15.2175 16.7809 15.4178 17.1351 15.5817 17.5045C15.7461 17.8735 15.8749 18.2601 15.9617 18.662C16.0472 19.0639 16.0919 19.4807 16.0919 19.9067C16.0919 20.3331 16.0472 20.7495 15.9617 21.1514C15.8749 21.5533 15.7461 21.9394 15.5817 22.3089C15.4178 22.6783 15.2175 23.032 14.9848 23.3607C14.9585 23.3971 14.934 23.43 14.9077 23.4659C16.2751 24.0953 17.7648 24.4867 19.0489 24.7492Z" fill="white"/>
</svg>
