<svg width="16" height="16" viewBox="0 0 16 16" fill="none" xmlns="http://www.w3.org/2000/svg">
<path d="M7.99555 8.43886L7.99085 8.44675L8.00409 8.43886L13.2041 5.33886L13.2161 5.3317L13.2041 5.32454L8.00409 2.22454L8.00879 2.21665L7.99555 2.22454L2.79555 5.32454L2.78355 5.3317L2.79555 5.33886L7.99555 8.43886ZM2.71829 12.6132C2.7373 12.6322 2.75881 12.6467 2.78274 12.6567H2.66649V12.665V12.6734H2.87164H7.99982H13.128H13.3332V12.665V12.6567H13.2169C13.2408 12.6467 13.2623 12.6322 13.2813 12.6132C13.3215 12.573 13.3415 12.5217 13.3415 12.4599V6.41372V6.39903L13.3289 6.40656L7.99982 9.59119L2.67076 6.40656L2.65815 6.39903V6.41372V12.4599C2.65815 12.5217 2.6781 12.573 2.71829 12.6132ZM2.15053 4.55409L7.99982 1.0722L13.8491 4.55409C13.8492 4.55412 13.8492 4.55415 13.8493 4.55418C13.9967 4.64998 14.1128 4.77604 14.1976 4.93247C14.2824 5.08895 14.3248 5.25532 14.3248 5.4317V12.4599C14.3248 12.7945 14.209 13.0774 13.9772 13.3091C13.7455 13.5409 13.4626 13.6567 13.128 13.6567H2.87164C2.53704 13.6567 2.25413 13.5409 2.0224 13.3091C1.79066 13.0774 1.67484 12.7945 1.67484 12.4599V5.4317C1.67484 5.25532 1.71722 5.08895 1.80205 4.93247C1.88683 4.77604 2.00292 4.64998 2.15039 4.55418C2.15043 4.55415 2.15048 4.55412 2.15053 4.55409Z" fill="#5C5E61" stroke="#5C5E61" stroke-width="0.0166667"/>
</svg>
