<svg width="22" height="18" viewBox="0 0 22 18" fill="none" xmlns="http://www.w3.org/2000/svg">
<path fill-rule="evenodd" clip-rule="evenodd" d="M0.786133 2.77063C0.786133 1.38715 1.90766 0.265625 3.29113 0.265625H18.7094C20.0929 0.265625 21.2144 1.38715 21.2144 2.77062V13.4994C21.2144 14.8828 20.0929 16.0044 18.7094 16.0044H15.1581C14.0948 17.0699 12.6246 17.7292 11.0003 17.7292C9.37606 17.7292 7.90579 17.0699 6.84254 16.0044H3.29113C1.90766 16.0044 0.786133 14.8828 0.786133 13.4994V2.77063ZM5.67387 14.3344C5.32284 13.5813 5.12681 12.7414 5.12681 11.8557C5.12681 10.0688 5.92484 8.46817 7.18396 7.39091L6.04962 6.57475L2.45613 3.92675V13.4994C2.45613 13.9605 2.82998 14.3344 3.29113 14.3344H5.67387ZM2.7929 2.10049L7.03652 5.22748L8.72224 6.44037C9.42275 6.14533 10.1925 5.98225 11.0003 5.98225C11.808 5.98225 12.5776 6.14527 13.278 6.4402L14.9637 5.22744L19.2076 2.10045C19.0685 1.99691 18.8961 1.93562 18.7094 1.93562H3.29113C3.1044 1.93562 2.93198 1.99692 2.7929 2.10049ZM19.5444 3.92664L15.9429 6.58035L14.8164 7.39069C16.0757 8.46795 16.8738 10.0686 16.8738 11.8557C16.8738 12.7414 16.6778 13.5813 16.3267 14.3344H18.7094C19.1706 14.3344 19.5444 13.9605 19.5444 13.4994V3.92664ZM12.9678 8.14018C12.971 8.14191 12.9742 8.14362 12.9774 8.1453C14.3023 8.85272 15.2038 10.249 15.2038 11.8557C15.2038 14.1773 13.3218 16.0592 11.0003 16.0592C8.67878 16.0592 6.79681 14.1773 6.79681 11.8557C6.79681 10.2491 7.6982 8.85295 9.02287 8.14548C9.02608 8.14379 9.02929 8.14208 9.03249 8.14036C9.61958 7.82876 10.2893 7.65225 11.0003 7.65225C11.7112 7.65225 12.3808 7.8287 12.9678 8.14018ZM11.0002 9.00525C11.2216 9.00525 11.434 9.09322 11.5906 9.24981L13.606 11.2652C13.9321 11.5913 13.9321 12.12 13.606 12.4461C13.2799 12.7722 12.7512 12.7722 12.4251 12.4461L11.8352 11.8561L11.8352 13.871C11.8352 14.3322 11.4613 14.706 11.0002 14.706C10.539 14.706 10.1652 14.3322 10.1652 13.871L10.1652 11.8561L9.57522 12.4461C9.24913 12.7722 8.72044 12.7722 8.39435 12.4461C8.06826 12.12 8.06826 11.5913 8.39435 11.2652L10.4097 9.24981C10.5663 9.09322 10.7787 9.00525 11.0002 9.00525Z" fill="#2E3032"/>
</svg>
