<svg width="239" height="223" viewBox="0 0 239 223" fill="none" xmlns="http://www.w3.org/2000/svg">
<g clip-path="url(#clip0_1_10501)">
<path d="M76.6746 24.2814C83.3838 24.2814 88.8228 18.8476 88.8228 12.1446C88.8228 5.44164 83.3838 0.0078125 76.6746 0.0078125C69.9653 0.0078125 64.5264 5.44164 64.5264 12.1446C64.5264 18.8476 69.9653 24.2814 76.6746 24.2814Z" fill="#FBAF21"/>
<path d="M18.1628 92.9185L77.7414 17.7455L165.05 59.6168L163.625 53.3459L76.4658 10.8672L16.2314 85.0397C16.2314 85.0397 18.2581 93.3294 18.1628 92.9185Z" fill="#814042"/>
<path d="M17.6382 91.9702L77.7414 17.75L165.765 60.3836L187.314 161.253L39.1866 192.84L17.6382 91.9702Z" fill="white"/>
<path d="M17.6084 91.9754L102.044 124.312L165.759 60.3828" stroke="#5C6062" stroke-miterlimit="10"/>
<path d="M46.2206 112.538C46.2206 112.538 19.4385 105.624 2.16992 109.691C2.16992 109.685 18.592 100.955 46.2206 112.538C46.2206 112.538 56.956 96.6611 73.1218 90.3009C89.2817 83.9407 59.3284 96.9172 46.2206 112.538Z" fill="black"/>
<path d="M46.2206 112.538C46.2206 112.538 19.4385 105.624 2.16992 109.691C2.16992 109.685 18.592 100.955 46.2206 112.538ZM46.2206 112.538C46.2206 112.538 56.956 96.6611 73.1218 90.3009C89.2817 83.9407 59.3284 96.9172 46.2206 112.538Z" stroke="black" stroke-miterlimit="10"/>
<path d="M92.9296 112.342C92.9296 112.342 81.5265 109.4 74.1768 111.127C74.1708 111.133 81.1629 107.417 92.9296 112.342C92.9296 112.342 97.5015 105.583 104.38 102.873C111.259 100.17 98.5089 105.696 92.9296 112.342Z" fill="black"/>
<path d="M92.9296 112.342C92.9296 112.342 81.5265 109.4 74.1768 111.127C74.1708 111.133 81.1629 107.417 92.9296 112.342ZM92.9296 112.342C92.9296 112.342 97.5015 105.583 104.38 102.873C111.259 100.17 98.5089 105.696 92.9296 112.342Z" stroke="black" stroke-miterlimit="10"/>
<path d="M150.303 63.8623C150.303 63.8623 117.691 49.6829 95.4272 51.9578C95.4272 51.9638 117.309 43.2751 150.303 63.8623C150.303 63.8623 166.093 44.5554 187.308 38.9992C208.516 33.443 169.032 45.3356 150.303 63.8623Z" fill="black"/>
<path d="M150.303 63.8623C150.303 63.8623 117.691 49.6829 95.4272 51.9578C95.4272 51.9638 117.309 43.2751 150.303 63.8623ZM150.303 63.8623C150.303 63.8623 166.093 44.5554 187.308 38.9992C208.516 33.443 169.032 45.3356 150.303 63.8623Z" stroke="black" stroke-miterlimit="10"/>
<path d="M120.618 90.4342C120.618 90.4342 101.424 79.5719 87.2847 79.1252C87.2906 79.1312 101.74 75.8022 120.618 90.4342C120.618 90.4342 132.176 80.4294 145.939 78.8751C159.709 77.3268 133.952 81.1202 120.618 90.4342Z" fill="black"/>
<path d="M120.618 90.4342C120.618 90.4342 101.424 79.5719 87.2847 79.1252C87.2906 79.1312 101.74 75.8022 120.618 90.4342ZM120.618 90.4342C120.618 90.4342 132.176 80.4294 145.939 78.8751C159.709 77.3268 133.952 81.1202 120.618 90.4342Z" stroke="black" stroke-miterlimit="10"/>
<path d="M190.502 174.108C213.346 174.108 231.865 155.607 231.865 132.784C231.865 109.962 213.346 91.4609 190.502 91.4609C167.659 91.4609 149.14 109.962 149.14 132.784C149.14 155.607 167.659 174.108 190.502 174.108Z" fill="#F6F8FC"/>
<path d="M173.008 86.294C147.918 95.8641 135.341 123.949 144.92 149.015C154.499 174.08 182.61 186.646 207.7 177.076C232.789 167.506 245.366 139.421 235.787 114.355C226.208 89.2895 198.097 76.7239 173.008 86.294ZM204.892 169.304C184.083 177.242 160.776 166.827 152.83 146.037C144.884 125.247 155.31 101.962 176.119 94.0239C196.928 86.0856 220.235 96.5013 228.181 117.291C236.127 138.081 225.701 161.366 204.892 169.304Z" fill="#8D9194"/>
<path d="M211.188 176.102L205.781 178.164L213.648 198.749L219.055 196.686L211.188 176.102Z" fill="#48484A"/>
<path d="M228.354 220.958L223.192 222.923C222.584 223.156 221.904 222.852 221.672 222.244L211.914 196.702C211.682 196.095 211.986 195.416 212.594 195.184L217.756 193.219C218.364 192.986 219.043 193.29 219.276 193.898L229.034 219.44C229.272 220.047 228.962 220.726 228.354 220.958Z" fill="#393B3B"/>
<path opacity="0.97" d="M183.701 99.9792C183.701 99.9792 205.768 95.3996 220.116 117.809" stroke="#B6B9BE" stroke-width="4" stroke-miterlimit="10"/>
<path d="M222.453 127.279C223.888 127.279 225.052 126.116 225.052 124.682C225.052 123.248 223.888 122.086 222.453 122.086C221.018 122.086 219.854 123.248 219.854 124.682C219.854 126.116 221.018 127.279 222.453 127.279Z" fill="#B6B9BE"/>
</g>
<defs>
<clipPath id="clip0_1_10501">
<rect width="239" height="223" fill="white"/>
</clipPath>
</defs>
</svg>
