<svg width="365" height="365" viewBox="0 0 365 365" fill="none" xmlns="http://www.w3.org/2000/svg">
<rect width="365" height="365" rx="182.5" fill="#FCF3F3"/>
<g clip-path="url(#clip0_1_10500)">
<path d="M139.675 95.2814C146.384 95.2814 151.823 89.8476 151.823 83.1446C151.823 76.4416 146.384 71.0078 139.675 71.0078C132.965 71.0078 127.526 76.4416 127.526 83.1446C127.526 89.8476 132.965 95.2814 139.675 95.2814Z" fill="#FBAF21"/>
<path d="M81.1628 163.919L140.741 88.7455L228.05 130.617L226.625 124.346L139.466 81.8672L79.2314 156.04C79.2314 156.04 81.2581 164.329 81.1628 163.919Z" fill="#814042"/>
<path d="M80.6382 162.97L140.741 88.75L228.765 131.384L250.314 232.253L102.187 263.84L80.6382 162.97Z" fill="white"/>
<path d="M80.6084 162.975L165.044 195.312L228.759 131.383" stroke="#5C6062" stroke-miterlimit="10"/>
<path d="M109.221 183.538C109.221 183.538 82.4385 176.624 65.1699 180.691C65.1699 180.685 81.592 171.955 109.221 183.538C109.221 183.538 119.956 167.661 136.122 161.301C152.282 154.941 122.328 167.917 109.221 183.538Z" fill="black"/>
<path d="M109.221 183.538C109.221 183.538 82.4385 176.624 65.1699 180.691C65.1699 180.685 81.592 171.955 109.221 183.538ZM109.221 183.538C109.221 183.538 119.956 167.661 136.122 161.301C152.282 154.941 122.328 167.917 109.221 183.538Z" stroke="black" stroke-miterlimit="10"/>
<path d="M155.93 183.342C155.93 183.342 144.526 180.4 137.177 182.127C137.171 182.133 144.163 178.417 155.93 183.342C155.93 183.342 160.502 176.583 167.38 173.873C174.259 171.17 161.509 176.696 155.93 183.342Z" fill="black"/>
<path d="M155.93 183.342C155.93 183.342 144.526 180.4 137.177 182.127C137.171 182.133 144.163 178.417 155.93 183.342ZM155.93 183.342C155.93 183.342 160.502 176.583 167.38 173.873C174.259 171.17 161.509 176.696 155.93 183.342Z" stroke="black" stroke-miterlimit="10"/>
<path d="M213.303 134.862C213.303 134.862 180.691 120.683 158.427 122.958C158.427 122.964 180.309 114.275 213.303 134.862C213.303 134.862 229.093 115.555 250.308 109.999C271.516 104.443 232.032 116.336 213.303 134.862Z" fill="black"/>
<path d="M213.303 134.862C213.303 134.862 180.691 120.683 158.427 122.958C158.427 122.964 180.309 114.275 213.303 134.862ZM213.303 134.862C213.303 134.862 229.093 115.555 250.308 109.999C271.516 104.443 232.032 116.336 213.303 134.862Z" stroke="black" stroke-miterlimit="10"/>
<path d="M183.618 161.434C183.618 161.434 164.424 150.572 150.285 150.125C150.291 150.131 164.74 146.802 183.618 161.434C183.618 161.434 195.176 151.429 208.939 149.875C222.709 148.327 196.952 152.12 183.618 161.434Z" fill="black"/>
<path d="M183.618 161.434C183.618 161.434 164.424 150.572 150.285 150.125C150.291 150.131 164.74 146.802 183.618 161.434ZM183.618 161.434C183.618 161.434 195.176 151.429 208.939 149.875C222.709 148.327 196.952 152.12 183.618 161.434Z" stroke="black" stroke-miterlimit="10"/>
<path d="M253.502 245.108C276.346 245.108 294.865 226.607 294.865 203.784C294.865 180.962 276.346 162.461 253.502 162.461C230.659 162.461 212.14 180.962 212.14 203.784C212.14 226.607 230.659 245.108 253.502 245.108Z" fill="#F6F8FC"/>
<path d="M236.008 157.294C210.918 166.864 198.341 194.949 207.92 220.015C217.499 245.08 245.61 257.646 270.7 248.076C295.789 238.506 308.366 210.421 298.787 185.355C289.208 160.289 261.097 147.724 236.008 157.294ZM267.892 240.304C247.083 248.242 223.776 237.827 215.83 217.037C207.884 196.247 218.31 172.962 239.119 165.024C259.928 157.086 283.235 167.501 291.181 188.291C299.127 209.081 288.701 232.366 267.892 240.304Z" fill="#8D9194"/>
<path d="M274.188 247.102L268.781 249.164L276.648 269.749L282.055 267.686L274.188 247.102Z" fill="#48484A"/>
<path d="M291.354 291.958L286.192 293.923C285.584 294.156 284.904 293.852 284.672 293.244L274.914 267.702C274.682 267.095 274.986 266.416 275.594 266.184L280.756 264.219C281.364 263.986 282.043 264.29 282.276 264.898L292.034 290.44C292.272 291.047 291.962 291.726 291.354 291.958Z" fill="#393B3B"/>
<path opacity="0.97" d="M246.701 170.979C246.701 170.979 268.768 166.4 283.116 188.809" stroke="#B6B9BE" stroke-width="4" stroke-miterlimit="10"/>
<path d="M285.453 198.279C286.888 198.279 288.052 197.116 288.052 195.682C288.052 194.248 286.888 193.086 285.453 193.086C284.018 193.086 282.854 194.248 282.854 195.682C282.854 197.116 284.018 198.279 285.453 198.279Z" fill="#B6B9BE"/>
</g>
<defs>
<clipPath id="clip0_1_10500">
<rect width="239" height="223" fill="white" transform="translate(63 71)"/>
</clipPath>
</defs>
</svg>
