<svg width="41" height="53" viewBox="0 0 41 53" fill="none" xmlns="http://www.w3.org/2000/svg">
<path fill-rule="evenodd" clip-rule="evenodd" d="M6.91669 0H24.4498C25.3282 0.000187611 26.1706 0.349305 26.7917 0.970563L39.0711 13.25C39.6924 13.8711 40.0415 14.7135 40.0417 15.5919V46.375C40.0417 48.1321 39.3437 49.8172 38.1013 51.0596C36.8588 52.302 35.1737 53 33.4167 53H6.91669C5.15963 53 3.47453 52.302 2.2321 51.0596C0.989676 49.8172 0.291687 48.1321 0.291687 46.375V6.625C0.291687 4.86794 0.989676 3.18285 2.2321 1.94042C3.47453 0.697989 5.15963 0 6.91669 0V0ZM25.1354 4.96875V11.5938C25.1354 12.4723 25.4844 13.3148 26.1056 13.936C26.7269 14.5573 27.5694 14.9062 28.4479 14.9062H35.0729L25.1354 4.96875ZM7.46325 45.2752C7.76137 45.8715 8.22512 46.4114 8.91413 46.6632C9.59981 46.9116 10.2789 46.7957 10.8354 46.5638C11.8888 46.1332 12.9388 45.1196 13.9028 43.9602C15.0058 42.6319 16.1652 40.8895 17.2848 38.9583C19.4463 38.3177 21.6598 37.8677 23.8999 37.6134C24.8936 38.8821 25.9205 39.9753 26.9142 40.7603C27.8417 41.4891 28.9117 42.0952 30.0081 42.1416C30.6054 42.1712 31.1967 42.0112 31.6975 41.6845C32.2109 41.3499 32.5919 40.8663 32.8701 40.3065C33.1683 39.7069 33.3504 39.0809 33.3272 38.4416C33.3063 37.8113 33.0728 37.2066 32.6647 36.7257C31.9161 35.8313 30.6905 35.4007 29.4847 35.1854C28.0221 34.9588 26.5381 34.9032 25.0626 35.0197C23.8166 33.2583 22.7302 31.3893 21.8163 29.4349C22.6444 27.2486 23.2639 25.1816 23.5388 23.4923C23.6581 22.7701 23.721 22.0811 23.6978 21.4584C23.6937 20.8402 23.5499 20.231 23.2771 19.6763C23.12 19.3701 22.8967 19.1028 22.6234 18.8936C22.3501 18.6845 22.0336 18.5388 21.6971 18.4672C21.0279 18.3247 20.3389 18.4672 19.7062 18.7222C18.4574 19.2191 17.7983 20.2791 17.5498 21.4484C17.308 22.5747 17.4173 23.8864 17.7022 25.2114C17.9937 26.5563 18.4906 28.0204 19.1266 29.5011C18.1092 32.0312 16.9343 34.495 15.6087 36.8781C13.9016 37.4152 12.256 38.1314 10.6996 39.0146C9.47394 39.7434 8.38412 40.6046 7.72825 41.6216C7.03262 42.7014 6.81731 43.9867 7.46325 45.2752Z" fill="#F92C39" fill-opacity="0.75"/>
</svg>
