<svg width="41" height="54" viewBox="0 0 41 54" fill="none" xmlns="http://www.w3.org/2000/svg">
<path d="M11.9621 41.9741C12.4259 41.7025 12.9327 41.4375 13.4826 41.1857C13.018 41.8783 12.5206 42.5482 11.9919 43.1931C11.0644 44.3094 10.3423 44.9023 9.8885 45.0878C9.85082 45.1038 9.81208 45.117 9.77256 45.1276C9.7395 45.0817 9.71067 45.0329 9.68643 44.9818C9.50093 44.6175 9.50756 44.2663 9.81893 43.7893C10.1701 43.2428 10.8756 42.6167 11.9621 41.9741ZM20.0943 36.5184C19.7001 36.6012 19.3092 36.684 18.9151 36.7768C19.4989 35.6328 20.0512 34.473 20.5713 33.2987C21.0949 34.269 21.6585 35.2172 22.2607 36.1408C21.5419 36.2468 20.8164 36.3727 20.0943 36.5184ZM28.4584 39.6288C27.9439 39.2138 27.4621 38.7598 27.0174 38.2707C27.7727 38.2873 28.4551 38.3436 29.0447 38.4496C30.0947 38.6384 30.5883 38.9365 30.7606 39.1419C30.8148 39.1993 30.8456 39.2749 30.8467 39.3539C30.8351 39.5876 30.7669 39.8149 30.6479 40.0164C30.5811 40.1778 30.4739 40.3192 30.3365 40.4272C30.2682 40.4691 30.1876 40.4866 30.108 40.4768C29.8099 40.4669 29.2534 40.2582 28.4584 39.6288ZM21.0881 23.9077C20.9556 24.716 20.7303 25.6435 20.4256 26.6538C20.3133 26.2755 20.2149 25.8932 20.1307 25.5077C19.879 24.3383 19.8426 23.4208 19.9784 22.7848C20.1042 22.1985 20.3427 21.9633 20.6276 21.8473C20.7804 21.78 20.9422 21.7354 21.1079 21.7148C21.151 21.8142 21.2007 22.0196 21.2139 22.3707C21.2305 22.7748 21.1907 23.2883 21.0881 23.911V23.9077Z" fill="#F92C39" fill-opacity="0.75"/>
<path fill-rule="evenodd" clip-rule="evenodd" d="M6.91667 0.820312H24.4497C25.3282 0.8205 26.1706 1.16962 26.7917 1.79088L39.0711 14.0703C39.6924 14.6914 40.0415 15.5338 40.0417 16.4122V47.1953C40.0417 48.9524 39.3437 50.6375 38.1012 51.8799C36.8588 53.1223 35.1737 53.8203 33.4167 53.8203H6.91667C5.15961 53.8203 3.47451 53.1223 2.23209 51.8799C0.989657 50.6375 0.291668 48.9524 0.291668 47.1953V7.44531C0.291668 5.68825 0.989657 4.00316 2.23209 2.76073C3.47451 1.5183 5.15961 0.820313 6.91667 0.820313V0.820312ZM25.1354 5.78906V12.4141C25.1354 13.2926 25.4844 14.1351 26.1056 14.7564C26.7268 15.3776 27.5694 15.7266 28.4479 15.7266H35.0729L25.1354 5.78906ZM7.46323 46.0956C7.76136 46.6918 8.22511 47.2318 8.91411 47.4835C9.59979 47.7319 10.2789 47.616 10.8354 47.3841C11.8887 46.9535 12.9388 45.9399 13.9027 44.7805C15.0058 43.4522 16.1652 41.7098 17.2848 39.7786C19.4463 39.138 21.6598 38.688 23.8999 38.4338C24.8936 39.7024 25.9205 40.7956 26.9142 41.5806C27.8417 42.3094 28.9117 42.9156 30.0081 42.9619C30.6053 42.9915 31.1966 42.8315 31.6975 42.5048C32.2109 42.1702 32.5919 41.6866 32.8701 41.1268C33.1682 40.5273 33.3504 39.9012 33.3272 39.2619C33.3062 38.6316 33.0728 38.0269 32.6647 37.546C31.9161 36.6516 30.6905 36.221 29.4847 36.0057C28.0221 35.7791 26.538 35.7236 25.0625 35.8401C23.8166 34.0787 22.7302 32.2096 21.8163 30.2552C22.6444 28.0689 23.2639 26.0019 23.5388 24.3126C23.658 23.5904 23.721 22.9014 23.6978 22.2787C23.6937 21.6605 23.5499 21.0513 23.2771 20.4966C23.12 20.1904 22.8966 19.9231 22.6233 19.714C22.35 19.5048 22.0336 19.3592 21.697 19.2875C21.0279 19.1451 20.3389 19.2875 19.7062 19.5426C18.4574 20.0394 17.7982 21.0994 17.5498 22.2687C17.308 23.395 17.4173 24.7068 17.7022 26.0317C17.9937 27.3766 18.4905 28.8407 19.1265 30.3214C18.1092 32.8515 16.9343 35.3153 15.6087 37.6984C13.9015 38.2355 12.256 38.9517 10.6995 39.8349C9.47392 40.5637 8.3841 41.4249 7.72823 42.4419C7.03261 43.5217 6.81729 44.807 7.46323 46.0956Z" fill="#F92C39" fill-opacity="0.75"/>
</svg>
