<svg width="21" height="21" viewBox="0 0 21 21" fill="none" xmlns="http://www.w3.org/2000/svg">
<path d="M10.5 13.5C12.1569 13.5 13.5 12.1569 13.5 10.5C13.5 8.84315 12.1569 7.5 10.5 7.5C8.84315 7.5 7.5 8.84315 7.5 10.5C7.5 12.1569 8.84315 13.5 10.5 13.5Z" stroke="#4B4747" stroke-width="1.67" stroke-linecap="round" stroke-linejoin="round"/>
<path d="M16.8909 13.0909C16.7759 13.3514 16.7417 13.6403 16.7925 13.9205C16.8432 14.2007 16.9768 14.4592 17.1759 14.6627L17.2277 14.7145C17.3883 14.875 17.5157 15.0655 17.6026 15.2751C17.6896 15.4848 17.7343 15.7096 17.7343 15.9366C17.7343 16.1636 17.6896 16.3883 17.6026 16.598C17.5157 16.8077 17.3883 16.9982 17.2277 17.1586C17.0673 17.3192 16.8768 17.4466 16.6671 17.5336C16.4574 17.6205 16.2327 17.6652 16.0057 17.6652C15.7787 17.6652 15.5539 17.6205 15.3442 17.5336C15.1346 17.4466 14.9441 17.3192 14.7836 17.1586L14.7318 17.1068C14.5283 16.9077 14.2698 16.7742 13.9896 16.7234C13.7094 16.6726 13.4205 16.7069 13.16 16.8218C12.9046 16.9313 12.6867 17.1131 12.5333 17.3448C12.3798 17.5765 12.2975 17.848 12.2964 18.1259V18.2727C12.2964 18.7308 12.1144 19.1702 11.7905 19.4941C11.4665 19.818 11.0272 20 10.5691 20C10.111 20 9.67165 19.818 9.34773 19.4941C9.0238 19.1702 8.84182 18.7308 8.84182 18.2727V18.195C8.83513 17.9091 8.7426 17.6319 8.57626 17.3993C8.40992 17.1668 8.17745 16.9896 7.90909 16.8909C7.6486 16.7759 7.35965 16.7417 7.07949 16.7925C6.79933 16.8432 6.54081 16.9768 6.33727 17.1759L6.28545 17.2277C6.12504 17.3883 5.93454 17.5157 5.72485 17.6026C5.51516 17.6896 5.2904 17.7343 5.06341 17.7343C4.83642 17.7343 4.61165 17.6896 4.40197 17.6026C4.19228 17.5157 4.00178 17.3883 3.84136 17.2277C3.68077 17.0673 3.55337 16.8768 3.46644 16.6671C3.37952 16.4574 3.33478 16.2327 3.33478 16.0057C3.33478 15.7787 3.37952 15.5539 3.46644 15.3442C3.55337 15.1346 3.68077 14.9441 3.84136 14.7836L3.89318 14.7318C4.09228 14.5283 4.22584 14.2698 4.27664 13.9896C4.32744 13.7094 4.29314 13.4205 4.17818 13.16C4.0687 12.9046 3.88693 12.6867 3.65522 12.5333C3.42351 12.3798 3.152 12.2975 2.87409 12.2964H2.72727C2.26917 12.2964 1.82983 12.1144 1.50591 11.7905C1.18198 11.4665 1 11.0272 1 10.5691C1 10.111 1.18198 9.67165 1.50591 9.34773C1.82983 9.0238 2.26917 8.84182 2.72727 8.84182H2.805C3.09086 8.83513 3.3681 8.7426 3.60067 8.57626C3.83324 8.40992 4.01039 8.17745 4.10909 7.90909C4.22405 7.6486 4.25835 7.35965 4.20755 7.07949C4.15675 6.79933 4.02319 6.54081 3.82409 6.33727L3.77227 6.28545C3.61168 6.12504 3.48428 5.93454 3.39735 5.72485C3.31043 5.51516 3.26569 5.2904 3.26569 5.06341C3.26569 4.83642 3.31043 4.61165 3.39735 4.40197C3.48428 4.19228 3.61168 4.00178 3.77227 3.84136C3.93269 3.68077 4.12319 3.55337 4.33288 3.46644C4.54256 3.37952 4.76733 3.33478 4.99432 3.33478C5.22131 3.33478 5.44607 3.37952 5.65576 3.46644C5.86545 3.55337 6.05595 3.68077 6.21636 3.84136L6.26818 3.89318C6.47172 4.09228 6.73024 4.22584 7.0104 4.27664C7.29056 4.32744 7.57951 4.29314 7.84 4.17818H7.90909C8.16453 4.0687 8.38238 3.88693 8.53583 3.65522C8.68927 3.42351 8.77162 3.152 8.77273 2.87409V2.72727C8.77273 2.26917 8.95471 1.82983 9.27863 1.50591C9.60256 1.18198 10.0419 1 10.5 1C10.9581 1 11.3974 1.18198 11.7214 1.50591C12.0453 1.82983 12.2273 2.26917 12.2273 2.72727V2.805C12.2284 3.08291 12.3107 3.35442 12.4642 3.58613C12.6176 3.81783 12.8355 3.99961 13.0909 4.10909C13.3514 4.22405 13.6403 4.25835 13.9205 4.20755C14.2007 4.15675 14.4592 4.02319 14.6627 3.82409L14.7145 3.77227C14.875 3.61168 15.0655 3.48428 15.2751 3.39735C15.4848 3.31043 15.7096 3.26569 15.9366 3.26569C16.1636 3.26569 16.3883 3.31043 16.598 3.39735C16.8077 3.48428 16.9982 3.61168 17.1586 3.77227C17.3192 3.93269 17.4466 4.12319 17.5336 4.33288C17.6205 4.54256 17.6652 4.76733 17.6652 4.99432C17.6652 5.22131 17.6205 5.44607 17.5336 5.65576C17.4466 5.86545 17.3192 6.05595 17.1586 6.21636L17.1068 6.26818C16.9077 6.47172 16.7742 6.73024 16.7234 7.0104C16.6726 7.29056 16.7069 7.57951 16.8218 7.84V7.90909C16.9313 8.16453 17.1131 8.38238 17.3448 8.53583C17.5765 8.68927 17.848 8.77162 18.1259 8.77273H18.2727C18.7308 8.77273 19.1702 8.95471 19.4941 9.27863C19.818 9.60256 20 10.0419 20 10.5C20 10.9581 19.818 11.3974 19.4941 11.7214C19.1702 12.0453 18.7308 12.2273 18.2727 12.2273H18.195C17.9171 12.2284 17.6456 12.3107 17.4139 12.4642C17.1822 12.6176 17.0004 12.8355 16.8909 13.0909V13.0909Z" stroke="#4B4747" stroke-width="1.67" stroke-linecap="round" stroke-linejoin="round"/>
</svg>
