<svg width="14" height="16" viewBox="0 0 14 16" fill="none" xmlns="http://www.w3.org/2000/svg">
<path d="M13 10.6679V5.33457C12.9998 5.10075 12.938 4.87111 12.821 4.66868C12.704 4.46625 12.5358 4.29815 12.3333 4.18124L7.66667 1.51457C7.46397 1.39755 7.23405 1.33594 7 1.33594C6.76595 1.33594 6.53603 1.39755 6.33333 1.51457L1.66667 4.18124C1.46418 4.29815 1.29599 4.46625 1.17897 4.66868C1.06196 4.87111 1.00024 5.10075 1 5.33457V10.6679C1.00024 10.9017 1.06196 11.1314 1.17897 11.3338C1.29599 11.5362 1.46418 11.7043 1.66667 11.8212L6.33333 14.4879C6.53603 14.6049 6.76595 14.6665 7 14.6665C7.23405 14.6665 7.46397 14.6049 7.66667 14.4879L12.3333 11.8212C12.5358 11.7043 12.704 11.5362 12.821 11.3338C12.938 11.1314 12.9998 10.9017 13 10.6679Z" stroke="#2E3032" stroke-linecap="round" stroke-linejoin="round"/>
</svg>
