<svg width="22" height="22" viewBox="0 0 22 22" fill="none" xmlns="http://www.w3.org/2000/svg">
<path d="M9.13999 16.8831H2.51221C1.67704 16.8831 1 16.2061 1 15.3709V2.51221C1 1.67704 1.67704 1 2.51221 1H13.2025C14.0377 1 14.7147 1.67704 14.7147 2.51221V8.59414" stroke="#2E3032" stroke-width="1.51221"/>
<path d="M5.04932 14.5734V10.5264C5.04932 9.6912 5.72635 9.01416 6.56152 9.01416H19.4881C20.3233 9.01416 21.0003 9.6912 21.0003 10.5264V19.4652C21.0003 20.3004 20.3233 20.9774 19.4881 20.9774H6.56152C5.72635 20.9774 5.04932 20.3004 5.04932 19.4652V19.2598" stroke="#2E3032" stroke-width="1.51221" stroke-linecap="round"/>
<path d="M5.44775 10.3062L13.0242 15.889L20.6012 10.3062" stroke="#2E3032" stroke-width="1.51221" stroke-linecap="round" stroke-linejoin="round"/>
<path d="M7.85712 14.8516L10.5049 16.8829L7.85712 18.9143" stroke="#2E3032" stroke-width="1.51221" stroke-linecap="round" stroke-linejoin="round"/>
<path d="M3.625 3.85938H8.83204" stroke="#2E3032" stroke-width="1.51221" stroke-linecap="round"/>
<path d="M3.625 6.33691H11.6604" stroke="#2E3032" stroke-width="1.51221" stroke-linecap="round"/>
</svg>
