<svg width="23" height="20" viewBox="0 0 23 20" fill="none" xmlns="http://www.w3.org/2000/svg">
<path d="M10.7519 4.99219H19.6545C20.5768 4.99219 21.3245 5.73987 21.3245 6.66219V16.8127C21.3245 17.735 20.5768 18.4827 19.6545 18.4827H5.0072C4.08489 18.4827 3.3372 17.735 3.3372 16.8127V11.7318M20.874 6.44971L12.3298 12.7453L8.32373 9.87546M4.19238 8.98535H4.91553M6.88175 3.3527C6.88175 2.72873 6.63388 2.13031 6.19266 1.68909C5.75145 1.24787 5.15303 1 4.52905 1C3.90508 1 3.30666 1.24787 2.86544 1.68909C2.42422 2.13031 2.17635 2.72873 2.17635 3.3527C2.17635 6.09752 1 6.88175 1 6.88175H8.05811C8.05811 6.88175 6.88175 6.09752 6.88175 3.3527Z" stroke="#2E3032" stroke-width="1.67" stroke-linecap="round" stroke-linejoin="round"/>
</svg>
