<svg width="24" height="20" viewBox="0 0 24 20" fill="none" xmlns="http://www.w3.org/2000/svg">
<path fill-rule="evenodd" clip-rule="evenodd" d="M5.15489 0.500977C2.55925 0.500977 0.455078 2.60515 0.455078 5.20078C0.455078 7.79642 2.55925 9.90059 5.15489 9.90059C7.75052 9.90059 9.85469 7.79642 9.85469 5.20078C9.85469 2.60515 7.75052 0.500977 5.15489 0.500977ZM3.02696 8.20072H5.08946C5.68037 8.20072 6.18795 8.08424 6.61219 7.85129C7.03832 7.61834 7.36503 7.28405 7.5923 6.84845C7.82147 6.41284 7.93605 5.89201 7.93605 5.28595C7.93605 4.68178 7.82147 4.16284 7.5923 3.72913C7.36503 3.29542 7.04022 2.96303 6.61787 2.73197C6.19552 2.49902 5.69173 2.38254 5.10651 2.38254H3.02696V8.20072ZM4.25707 7.14674H5.03832C5.40196 7.14674 5.70783 7.08235 5.95594 6.95356C6.20594 6.82288 6.39344 6.62118 6.51844 6.34845C6.64533 6.07383 6.70878 5.71966 6.70878 5.28595C6.70878 4.85602 6.64533 4.5047 6.51844 4.23197C6.39344 3.95924 6.20689 3.75849 5.95878 3.6297C5.71067 3.50091 5.4048 3.43652 5.04117 3.43652H4.25707V7.14674Z" fill="#2E3032"/>
<path fill-rule="evenodd" clip-rule="evenodd" d="M11.8325 4.33813C11.3713 4.33813 10.9975 4.71198 10.9975 5.17313C10.9975 5.63429 11.3713 6.00813 11.8325 6.00813H20.735C20.907 6.00813 21.0669 6.06013 21.1997 6.14926L13.4032 11.8938L9.89039 9.37732C9.5155 9.10876 8.99389 9.19495 8.72533 9.56984C8.45677 9.94473 8.54296 10.4664 8.91785 10.7349L12.9239 13.6047C13.218 13.8154 13.6142 13.8127 13.9055 13.5981L21.57 7.95076V16.9936C21.57 17.4548 21.1962 17.8286 20.735 17.8286H6.08773C5.62657 17.8286 5.25273 17.4548 5.25273 16.9936V11.9127C5.25273 11.4516 4.87889 11.0777 4.41773 11.0777C3.95657 11.0777 3.58273 11.4516 3.58273 11.9127V16.9936C3.58273 18.3771 4.70426 19.4986 6.08773 19.4986H20.735C22.1185 19.4986 23.24 18.3771 23.24 16.9936V6.84313C23.24 5.45966 22.1185 4.33813 20.735 4.33813H11.8325ZM21.57 7.95076L22.4497 7.30259C22.821 7.02903 22.9002 6.50631 22.6266 6.13505C22.3531 5.76378 21.8304 5.68457 21.4591 5.95813L21.1997 6.14926C21.423 6.29913 21.57 6.55396 21.57 6.84313V7.95076Z" fill="#2E3032"/>
<path d="M22.4497 7.30259C22.821 7.02903 22.9002 6.50631 22.6266 6.13505C22.3531 5.76378 21.8304 5.68457 21.4591 5.95813L21.1997 6.14926C21.423 6.29913 21.57 6.55396 21.57 6.84313V7.95076L22.4497 7.30259Z" fill="#2E3032"/>
</svg>
