<svg width="24" height="22" viewBox="0 0 24 22" fill="none" xmlns="http://www.w3.org/2000/svg">
<path d="M3.0459 3.40918V15.4318C3.0459 16.2821 3.73514 16.9713 4.58537 16.9713H7.07352" stroke="#2E3032" stroke-width="1.53947" stroke-linejoin="round"/>
<path d="M16.7293 8.57672V2.53947C16.7293 1.68925 16.04 1 15.1898 1H9.88766H5.18311" stroke="#2E3032" stroke-width="1.53947" stroke-linecap="round" stroke-linejoin="round"/>
<path d="M21.4604 9.12109H8.62492C7.77469 9.12109 7.08545 9.81034 7.08545 10.6606V19.3433V19.5174C7.08545 20.3676 7.7747 21.0569 8.62492 21.0569H21.4604C22.3106 21.0569 22.9998 20.3676 22.9998 19.5174V10.6606C22.9998 9.81034 22.3106 9.12109 21.4604 9.12109Z" stroke="#2E3032" stroke-width="1.53947" stroke-linecap="round"/>
<path d="M7.48291 10.4097L15.042 15.9797L22.6016 10.4097" stroke="#2E3032" stroke-width="1.53947" stroke-linecap="round" stroke-linejoin="round"/>
<path d="M7.4834 3.97754L10.8601 3.97754" stroke="#2E3032" stroke-width="1.53947" stroke-linecap="round"/>
<path d="M7.4834 6.44971H13.682" stroke="#2E3032" stroke-width="1.53947" stroke-linecap="round"/>
<path d="M1 5.31073L3.04589 2.64404L5.09179 5.31073" stroke="#2E3032" stroke-width="1.53947" stroke-linecap="round" stroke-linejoin="round"/>
</svg>
