<svg width="49" height="54" viewBox="0 0 49 54" fill="none" xmlns="http://www.w3.org/2000/svg">
<path fill-rule="evenodd" clip-rule="evenodd" d="M17.211 9.91938C17.211 8.88152 18.0557 8.04017 19.0977 8.04017L38.5654 8.04017C39.6075 8.04017 40.4522 8.88152 40.4522 9.91938C40.4522 10.9572 39.6075 11.7986 38.5654 11.7986L19.0977 11.7986C18.0557 11.7986 17.211 10.9572 17.211 9.91938Z" fill="#8C8F93"/>
<path fill-rule="evenodd" clip-rule="evenodd" d="M17.211 17.7872C17.211 16.7493 18.0557 15.908 19.0977 15.908L38.5654 15.908C39.6075 15.908 40.4522 16.7493 40.4522 17.7872C40.4522 18.8251 39.6075 19.6664 38.5654 19.6664L19.0977 19.6664C18.0557 19.6664 17.211 18.8251 17.211 17.7872Z" fill="#8C8F93"/>
<path fill-rule="evenodd" clip-rule="evenodd" d="M28.5075 25.655C28.5075 24.6172 29.3522 23.7758 30.3942 23.7758H38.5654C39.6075 23.7758 40.4522 24.6172 40.4522 25.655C40.4522 26.6929 39.6075 27.5342 38.5654 27.5342H30.3942C29.3522 27.5342 28.5075 26.6929 28.5075 25.655Z" fill="#8C8F93"/>
<path fill-rule="evenodd" clip-rule="evenodd" d="M49 45.1348C49 47.2105 47.3106 48.8932 45.2265 48.8932H24.9829V45.1348L45.2265 45.1348V3.75842H12.4361V26.8343H8.66261V3.75842C8.66261 1.68271 10.3521 0 12.4361 0H45.2265C47.3106 0 49 1.6827 49 3.75842V45.1348Z" fill="#8C8F93"/>
<path fill-rule="evenodd" clip-rule="evenodd" d="M6.73165 38.8635C6.73165 37.8257 7.57637 36.9843 8.61839 36.9843H13.3104L13.3104 32.3111C13.3104 31.2732 14.1551 30.4319 15.1971 30.4319C16.2391 30.4319 17.0839 31.2732 17.0839 32.3111V36.9843H21.7758C22.8179 36.9843 23.6626 37.8257 23.6626 38.8635C23.6626 39.9014 22.8179 40.7428 21.7758 40.7428H17.0839V45.416C17.0839 46.4539 16.2391 47.2952 15.1971 47.2952C14.1551 47.2952 13.3104 46.4539 13.3104 45.416L13.3104 40.7428H8.61839C7.57637 40.7428 6.73165 39.9014 6.73165 38.8635ZM15.1971 27.4855C8.88802 27.4855 3.77348 32.5796 3.77348 38.8635C3.77348 45.1475 8.88802 50.2416 15.1971 50.2416C21.5062 50.2416 26.6207 45.1475 26.6207 38.8635C26.6207 32.5796 21.5062 27.4855 15.1971 27.4855ZM15.1971 23.7271C6.80398 23.7271 0 30.5039 0 38.8635C0 47.2232 6.80398 54 15.1971 54C23.5902 54 30.3942 47.2232 30.3942 38.8635C30.3942 30.5039 23.5902 23.7271 15.1971 23.7271Z" fill="#8C8F93"/>
</svg>
