<svg width="134" height="119" viewBox="0 0 134 119" fill="none" xmlns="http://www.w3.org/2000/svg">
<g clip-path="url(#clip0_815_65122)">
<path d="M114.803 75.8031C114.803 75.8031 113.322 74.0045 122.794 82.0975C132.266 90.1905 134 91.9353 134 91.9353C134 91.9353 128.657 117.031 111.02 119.003L90.1289 103.841L114.803 75.8031Z" fill="#BF2600"/>
<path d="M105.233 92.2648C112.047 84.5217 116.333 77.149 114.805 75.7975C113.278 74.446 106.517 79.6274 99.7034 87.3705C92.8897 95.1136 88.6041 102.486 90.1312 103.838C91.6582 105.189 98.4197 100.008 105.233 92.2648Z" fill="#2D3031"/>
<path opacity="0.5" d="M51.6381 103.574C80.1571 103.574 103.276 80.3885 103.276 51.7872C103.276 23.1859 80.1571 0 51.6381 0C23.1192 0 0 23.1859 0 51.7872C0 80.3885 23.1192 103.574 51.6381 103.574Z" fill="#96999C"/>
<path d="M81.7896 66.9043C90.2839 66.9043 97.1699 59.9984 97.1699 51.4795C97.1699 42.9606 90.2839 36.0547 81.7896 36.0547C73.2952 36.0547 66.4092 42.9606 66.4092 51.4795C66.4092 59.9984 73.2952 66.9043 81.7896 66.9043Z" fill="#F37354"/>
<mask id="mask0_815_65122" style="mask-type:luminance" maskUnits="userSpaceOnUse" x="66" y="36" width="32" height="31">
<path d="M81.7896 66.9746C90.2839 66.9746 97.1699 60.0687 97.1699 51.5498C97.1699 43.0309 90.2839 36.125 81.7896 36.125C73.2952 36.125 66.4092 43.0309 66.4092 51.5498C66.4092 60.0687 73.2952 66.9746 81.7896 66.9746Z" fill="white"/>
</mask>
<g mask="url(#mask0_815_65122)">
<path d="M81.7894 50.9263C84.9442 50.9263 87.5017 48.3614 87.5017 45.1975C87.5017 42.0336 84.9442 39.4688 81.7894 39.4688C78.6346 39.4688 76.0771 42.0336 76.0771 45.1975C76.0771 48.3614 78.6346 50.9263 81.7894 50.9263Z" fill="white"/>
</g>
<mask id="mask1_815_65122" style="mask-type:luminance" maskUnits="userSpaceOnUse" x="66" y="36" width="32" height="31">
<path d="M81.7896 66.9746C90.2839 66.9746 97.1699 60.0687 97.1699 51.5498C97.1699 43.0309 90.2839 36.125 81.7896 36.125C73.2952 36.125 66.4092 43.0309 66.4092 51.5498C66.4092 60.0687 73.2952 66.9746 81.7896 66.9746Z" fill="white"/>
</mask>
<g mask="url(#mask1_815_65122)">
<path d="M81.7898 76.8866C88.539 76.8866 94.0103 71.3995 94.0103 64.6308C94.0103 57.8621 88.539 52.375 81.7898 52.375C75.0406 52.375 69.5693 57.8621 69.5693 64.6308C69.5693 71.3995 75.0406 76.8866 81.7898 76.8866Z" fill="white"/>
</g>
<path d="M20.4009 66.5683C28.8952 66.5683 35.7813 59.6624 35.7813 51.1435C35.7813 42.6247 28.8952 35.7188 20.4009 35.7188C11.9065 35.7188 5.02051 42.6247 5.02051 51.1435C5.02051 59.6624 11.9065 66.5683 20.4009 66.5683Z" fill="#41507B"/>
<mask id="mask2_815_65122" style="mask-type:luminance" maskUnits="userSpaceOnUse" x="5" y="35" width="31" height="32">
<path d="M20.4009 66.6386C28.8952 66.6386 35.7813 59.7327 35.7813 51.2139C35.7813 42.695 28.8952 35.7891 20.4009 35.7891C11.9065 35.7891 5.02051 42.695 5.02051 51.2139C5.02051 59.7327 11.9065 66.6386 20.4009 66.6386Z" fill="white"/>
</mask>
<g mask="url(#mask2_815_65122)">
<path d="M20.4008 50.5904C23.5556 50.5904 26.113 48.0255 26.113 44.8616C26.113 41.6977 23.5556 39.1328 20.4008 39.1328C17.2459 39.1328 14.6885 41.6977 14.6885 44.8616C14.6885 48.0255 17.2459 50.5904 20.4008 50.5904Z" fill="white" stroke="black" stroke-miterlimit="10"/>
</g>
<mask id="mask3_815_65122" style="mask-type:luminance" maskUnits="userSpaceOnUse" x="5" y="35" width="31" height="32">
<path d="M20.4009 66.6386C28.8952 66.6386 35.7813 59.7327 35.7813 51.2139C35.7813 42.695 28.8952 35.7891 20.4009 35.7891C11.9065 35.7891 5.02051 42.695 5.02051 51.2139C5.02051 59.7327 11.9065 66.6386 20.4009 66.6386Z" fill="white"/>
</mask>
<g mask="url(#mask3_815_65122)">
<path d="M20.4012 76.5507C27.1504 76.5507 32.6217 71.0635 32.6217 64.2949C32.6217 57.5262 27.1504 52.0391 20.4012 52.0391C13.652 52.0391 8.18066 57.5262 8.18066 64.2949C8.18066 71.0635 13.652 76.5507 20.4012 76.5507Z" fill="white" stroke="black" stroke-miterlimit="10"/>
</g>
<path d="M20.4009 66.5683C28.8952 66.5683 35.7813 59.6624 35.7813 51.1435C35.7813 42.6247 28.8952 35.7188 20.4009 35.7188C11.9065 35.7188 5.02051 42.6247 5.02051 51.1435C5.02051 59.6624 11.9065 66.5683 20.4009 66.5683Z" fill="#3E5898"/>
<mask id="mask4_815_65122" style="mask-type:luminance" maskUnits="userSpaceOnUse" x="5" y="35" width="31" height="32">
<path d="M20.4009 66.6386C28.8952 66.6386 35.7813 59.7327 35.7813 51.2139C35.7813 42.695 28.8952 35.7891 20.4009 35.7891C11.9065 35.7891 5.02051 42.695 5.02051 51.2139C5.02051 59.7327 11.9065 66.6386 20.4009 66.6386Z" fill="white"/>
</mask>
<g mask="url(#mask4_815_65122)">
<path d="M20.4008 50.5904C23.5556 50.5904 26.113 48.0255 26.113 44.8616C26.113 41.6977 23.5556 39.1328 20.4008 39.1328C17.2459 39.1328 14.6885 41.6977 14.6885 44.8616C14.6885 48.0255 17.2459 50.5904 20.4008 50.5904Z" fill="white"/>
</g>
<mask id="mask5_815_65122" style="mask-type:luminance" maskUnits="userSpaceOnUse" x="5" y="35" width="31" height="32">
<path d="M20.4009 66.6386C28.8952 66.6386 35.7813 59.7327 35.7813 51.2139C35.7813 42.695 28.8952 35.7891 20.4009 35.7891C11.9065 35.7891 5.02051 42.695 5.02051 51.2139C5.02051 59.7327 11.9065 66.6386 20.4009 66.6386Z" fill="white"/>
</mask>
<g mask="url(#mask5_815_65122)">
<path d="M20.4012 76.5507C27.1504 76.5507 32.6217 71.0635 32.6217 64.2949C32.6217 57.5262 27.1504 52.0391 20.4012 52.0391C13.652 52.0391 8.18066 57.5262 8.18066 64.2949C8.18066 71.0635 13.652 76.5507 20.4012 76.5507Z" fill="white"/>
</g>
<path d="M53.4146 96.0605C61.9089 96.0605 68.7949 89.1546 68.7949 80.6357C68.7949 72.1169 61.9089 65.2109 53.4146 65.2109C44.9202 65.2109 38.0342 72.1169 38.0342 80.6357C38.0342 89.1546 44.9202 96.0605 53.4146 96.0605Z" fill="#F0B0AE"/>
<mask id="mask6_815_65122" style="mask-type:luminance" maskUnits="userSpaceOnUse" x="38" y="65" width="31" height="32">
<path d="M53.4146 96.1308C61.9089 96.1308 68.7949 89.2249 68.7949 80.706C68.7949 72.1872 61.9089 65.2812 53.4146 65.2812C44.9202 65.2812 38.0342 72.1872 38.0342 80.706C38.0342 89.2249 44.9202 96.1308 53.4146 96.1308Z" fill="white"/>
</mask>
<g mask="url(#mask6_815_65122)">
<path d="M53.4144 80.0825C56.5692 80.0825 59.1267 77.5177 59.1267 74.3538C59.1267 71.1899 56.5692 68.625 53.4144 68.625C50.2596 68.625 47.7021 71.1899 47.7021 74.3538C47.7021 77.5177 50.2596 80.0825 53.4144 80.0825Z" fill="white"/>
</g>
<mask id="mask7_815_65122" style="mask-type:luminance" maskUnits="userSpaceOnUse" x="38" y="65" width="31" height="32">
<path d="M53.4146 96.1308C61.9089 96.1308 68.7949 89.2249 68.7949 80.706C68.7949 72.1872 61.9089 65.2812 53.4146 65.2812C44.9202 65.2812 38.0342 72.1872 38.0342 80.706C38.0342 89.2249 44.9202 96.1308 53.4146 96.1308Z" fill="white"/>
</mask>
<g mask="url(#mask7_815_65122)">
<path d="M53.4148 106.043C60.164 106.043 65.6353 100.556 65.6353 93.787C65.6353 87.0184 60.164 81.5312 53.4148 81.5312C46.6656 81.5312 41.1943 87.0184 41.1943 93.787C41.1943 100.556 46.6656 106.043 53.4148 106.043Z" fill="white"/>
</g>
<path d="M53.4146 37.3574C61.9089 37.3574 68.7949 30.4515 68.7949 21.9326C68.7949 13.4137 61.9089 6.50781 53.4146 6.50781C44.9202 6.50781 38.0342 13.4137 38.0342 21.9326C38.0342 30.4515 44.9202 37.3574 53.4146 37.3574Z" fill="#4FBE95"/>
<mask id="mask8_815_65122" style="mask-type:luminance" maskUnits="userSpaceOnUse" x="38" y="6" width="31" height="32">
<path d="M53.4146 37.4277C61.9089 37.4277 68.7949 30.5218 68.7949 22.0029C68.7949 13.484 61.9089 6.57812 53.4146 6.57812C44.9202 6.57812 38.0342 13.484 38.0342 22.0029C38.0342 30.5218 44.9202 37.4277 53.4146 37.4277Z" fill="white"/>
</mask>
<g mask="url(#mask8_815_65122)">
<path d="M53.4144 21.3794C56.5692 21.3794 59.1267 18.8146 59.1267 15.6506C59.1267 12.4867 56.5692 9.92188 53.4144 9.92188C50.2596 9.92188 47.7021 12.4867 47.7021 15.6506C47.7021 18.8146 50.2596 21.3794 53.4144 21.3794Z" fill="white"/>
</g>
<mask id="mask9_815_65122" style="mask-type:luminance" maskUnits="userSpaceOnUse" x="38" y="6" width="31" height="32">
<path d="M53.4146 37.4277C61.9089 37.4277 68.7949 30.5218 68.7949 22.0029C68.7949 13.484 61.9089 6.57812 53.4146 6.57812C44.9202 6.57812 38.0342 13.484 38.0342 22.0029C38.0342 30.5218 44.9202 37.4277 53.4146 37.4277Z" fill="white"/>
</mask>
<g mask="url(#mask9_815_65122)">
<path d="M53.4148 47.3397C60.164 47.3397 65.6353 41.8526 65.6353 35.0839C65.6353 28.3152 60.164 22.8281 53.4148 22.8281C46.6656 22.8281 41.1943 28.3152 41.1943 35.0839C41.1943 41.8526 46.6656 47.3397 53.4148 47.3397Z" fill="white"/>
</g>
<path d="M74.4404 77.4297L79.6619 82.2439" stroke="#FCB76A" stroke-miterlimit="10"/>
<path d="M88.8627 59.527C88.8627 59.527 79.249 64.8421 80.1131 67.4186L85.6789 72.9198C85.6789 72.9198 64.9632 53.1468 64.1586 53.0566C63.3539 52.9658 57.335 56.0366 62.84 63.588C68.3449 71.1394 74.4407 77.4323 74.4407 77.4323C74.4407 77.4323 70.8444 84.213 79.6441 90.6979C88.4437 97.1827 91.0549 91.9251 93.284 92.0915C95.513 92.258 99.7596 97.4975 99.7596 97.4975C104.424 95.7396 111.16 84.4936 111.16 84.4936C111.16 84.4936 105.724 78.3309 104.856 74.035C103.988 69.7384 102.35 68.3142 97.9429 62.4931C93.5362 56.672 88.8627 59.527 88.8627 59.527Z" fill="#EEDEAE" stroke="#FCB76A" stroke-miterlimit="10"/>
<path d="M95.8914 66.6462C95.8914 66.6462 89.9805 60.458 87.1171 59.6852C84.2537 58.9124 83.9471 62.9072 83.9471 62.9072C83.9471 62.9072 87.7883 62.8295 92.7395 69.4284C92.7395 69.4284 90.1965 65.2816 85.7738 63.3754C81.3512 61.4692 79.9941 67.3187 79.9941 67.3187" fill="#EEDEAE"/>
<path d="M95.8914 66.6462C95.8914 66.6462 89.9805 60.458 87.1171 59.6852C84.2537 58.9124 83.9471 62.9072 83.9471 62.9072C83.9471 62.9072 87.7883 62.8295 92.7395 69.4284C92.7395 69.4284 90.1965 65.2816 85.7738 63.3754C81.3512 61.4692 79.9941 67.3187 79.9941 67.3187" stroke="#FCB76A" stroke-miterlimit="10"/>
<path d="M81.061 82.7957L74.4404 77.4297" stroke="#FCB76A" stroke-miterlimit="10"/>
<path d="M60.7333 57.8125C60.7333 57.8125 56.9311 62.8252 81.8484 83.8384C81.8484 83.8377 60.2331 64.7408 60.7333 57.8125Z" fill="#FCB76A"/>
<path d="M85.6782 72.9205C85.6782 72.9205 84.0928 67.0957 80.1123 67.4192L85.6782 72.9205Z" fill="#FCB76A" stroke="#EEDEAE" stroke-miterlimit="10"/>
<path d="M83.9746 62.9536C83.9746 62.9536 88.2044 63.0925 92.6249 69.5396C92.6257 69.5396 88.9758 62.1932 83.9746 62.9536Z" fill="#FCB76A"/>
<path d="M88.0391 60.0078C88.0391 60.0078 92.6633 62.6287 95.8057 66.6991C95.805 66.6991 93.0003 60.1939 88.0391 60.0078Z" fill="#FCB76A"/>
<path d="M76.6055 79.4204C76.6055 79.4204 77.3021 82.9137 81.6066 83.3346C81.6066 83.3346 76.8585 79.2998 76.7323 79.1187C76.6062 78.9377 76.6055 79.4204 76.6055 79.4204Z" fill="#FCB76A"/>
<path d="M108.459 80.9922C108.348 81.3266 111.347 86.4578 99.7598 97.4973C99.7598 97.4973 106.385 94.0833 111.16 84.4934L108.459 80.9922Z" fill="#FCB76A"/>
</g>
<defs>
<clipPath id="clip0_815_65122">
<rect width="134" height="119" fill="white"/>
</clipPath>
</defs>
</svg>
