<svg width="40" height="41" viewBox="0 0 40 41" fill="none" xmlns="http://www.w3.org/2000/svg">
<path d="M33.3333 5.5H6.66665C4.8257 5.5 3.33331 6.99238 3.33331 8.83333V25.5C3.33331 27.3409 4.8257 28.8333 6.66665 28.8333H33.3333C35.1743 28.8333 36.6666 27.3409 36.6666 25.5V8.83333C36.6666 6.99238 35.1743 5.5 33.3333 5.5Z" stroke="#262829" stroke-width="2" stroke-linecap="round" stroke-linejoin="round"/>
<path d="M33.3333 5.5H6.66665C4.8257 5.5 3.33331 6.99238 3.33331 8.83333V25.5C3.33331 27.3409 4.8257 28.8333 6.66665 28.8333H33.3333C35.1743 28.8333 36.6666 27.3409 36.6666 25.5V8.83333C36.6666 6.99238 35.1743 5.5 33.3333 5.5Z" stroke="black" stroke-opacity="0.2" stroke-width="2" stroke-linecap="round" stroke-linejoin="round"/>
<path d="M33.3333 5.5H6.66665C4.8257 5.5 3.33331 6.99238 3.33331 8.83333V25.5C3.33331 27.3409 4.8257 28.8333 6.66665 28.8333H33.3333C35.1743 28.8333 36.6666 27.3409 36.6666 25.5V8.83333C36.6666 6.99238 35.1743 5.5 33.3333 5.5Z" stroke="black" stroke-opacity="0.2" stroke-width="2" stroke-linecap="round" stroke-linejoin="round"/>
<path d="M13.3333 35.5H26.6666" stroke="#262829" stroke-width="2" stroke-linecap="round" stroke-linejoin="round"/>
<path d="M13.3333 35.5H26.6666" stroke="black" stroke-opacity="0.2" stroke-width="2" stroke-linecap="round" stroke-linejoin="round"/>
<path d="M13.3333 35.5H26.6666" stroke="black" stroke-opacity="0.2" stroke-width="2" stroke-linecap="round" stroke-linejoin="round"/>
<path d="M20 28.8359V35.5026" stroke="#2E3032" stroke-width="2" stroke-linecap="round" stroke-linejoin="round"/>
</svg>
