<svg width="44" height="50" viewBox="0 0 44 50" fill="none" xmlns="http://www.w3.org/2000/svg">
<rect x="1" y="25.5469" width="14.3508" height="22.7002" rx="2" stroke="#2E3032" stroke-width="2" stroke-linejoin="round"/>
<path d="M6.79028 21.5438V12.7187C6.79028 11.6142 7.68571 10.7188 8.79028 10.7188H15.2574M19.6141 33.9971H24.4022H40.0141C41.1187 33.9971 42.0141 33.1016 42.0141 31.9971V12.7188C42.0141 11.6142 41.1187 10.7188 40.0141 10.7188H33.677" stroke="#2E3032" stroke-width="2" stroke-linecap="round" stroke-linejoin="round"/>
<path d="M19.7529 39.4064H24.2749M34.3299 39.4064H24.2749M24.2749 39.4064V35.0312" stroke="#2E3032" stroke-width="2" stroke-linecap="round" stroke-linejoin="round"/>
<path d="M6.07397 45.0703H10.2935" stroke="#2E3032" stroke-width="2" stroke-linecap="round" stroke-linejoin="round"/>
<path d="M24.4023 24.458C24.4023 24.458 33.3545 20.4406 33.3545 15.1839V6.81136L24.4023 1.75781L15.4501 6.81136V15.1839C15.9804 20.149 24.4023 24.458 24.4023 24.458Z" stroke="#2E3032" stroke-width="2" stroke-linecap="round" stroke-linejoin="round"/>
<path d="M24.402 23.5859V15.125C24.402 14.316 23.7462 13.6602 22.9372 13.6602H16.1416" stroke="#2E3032" stroke-width="2" stroke-linecap="round" stroke-linejoin="round"/>
<path d="M24.402 2.24219V11.0355C24.402 11.8445 25.0578 12.5003 25.8668 12.5003H33.3544" stroke="#2E3032" stroke-width="2" stroke-linecap="round" stroke-linejoin="round"/>
</svg>
