<svg width="32" height="33" viewBox="0 0 32 33" fill="none" xmlns="http://www.w3.org/2000/svg">
<path d="M4 8.5H6.66667H28" stroke="#BF2600" stroke-width="2" stroke-linecap="round" stroke-linejoin="round"/>
<path d="M10.6667 8.4974V5.83073C10.6667 5.12349 10.9477 4.44521 11.4478 3.94511C11.9479 3.44501 12.6262 3.16406 13.3334 3.16406H18.6667C19.374 3.16406 20.0523 3.44501 20.5524 3.94511C21.0525 4.44521 21.3334 5.12349 21.3334 5.83073V8.4974M25.3334 8.4974V27.1641C25.3334 27.8713 25.0525 28.5496 24.5524 29.0497C24.0523 29.5498 23.374 29.8307 22.6667 29.8307H9.33341C8.62617 29.8307 7.94789 29.5498 7.4478 29.0497C6.9477 28.5496 6.66675 27.8713 6.66675 27.1641V8.4974H25.3334Z" stroke="#BF2600" stroke-width="2" stroke-linecap="round" stroke-linejoin="round"/>
<path d="M13.3333 15.1641V23.1641" stroke="#BF2600" stroke-width="2" stroke-linecap="round" stroke-linejoin="round"/>
<path d="M18.6667 15.1641V23.1641" stroke="#BF2600" stroke-width="2" stroke-linecap="round" stroke-linejoin="round"/>
</svg>
