<svg width="231" height="250" viewBox="0 0 231 250" fill="none" xmlns="http://www.w3.org/2000/svg">
<path d="M115.507 231.252C179.299 231.252 231.013 179.484 231.013 115.626C231.013 51.7675 179.299 0 115.507 0C51.7141 0 0 51.7675 0 115.626C0 179.484 51.7141 231.252 115.507 231.252Z" fill="url(#paint0_linear_1236_72615)"/>
<path d="M200.711 132.678C200.711 132.678 205.235 127.488 212.536 126.958C219.837 126.429 218.594 130.838 218.594 130.838L200.711 132.678Z" fill="#EEDEAE"/>
<path d="M200.725 132.798C200.725 132.798 208.885 127.833 216.186 130.189C223.487 132.546 224.096 131.434 226.053 131.063C227.998 130.693 230.431 139.259 221.305 141.496C212.179 143.734 209.56 142.794 209.56 142.794C209.56 142.794 203.767 135.525 200.725 132.798Z" fill="#EEDEAE"/>
<path d="M177.591 150.555C177.433 150.661 174.748 152.594 173.094 157.996C171.388 163.583 171.878 165.199 171.878 165.199L177.591 150.555ZM177.591 150.555C177.591 150.555 187.088 140.373 200.05 133.118C200.05 133.118 204.071 131.807 207.179 136.097C210.287 140.387 209.56 142.796 209.56 142.796C209.56 142.796 186.189 183.576 169.193 175.949C152.21 168.31 131.021 106.121 131.021 106.121C131.021 106.121 165.053 116.409 177.591 150.555Z" fill="#2D3031"/>
<path d="M177.591 150.555L171.878 165.198C171.878 165.198 171.388 163.583 173.094 157.996C174.748 152.594 177.419 150.661 177.591 150.555Z" fill="#2D3031"/>
<path d="M129.738 105.922C129.738 105.922 164.616 117.467 168.637 170.719C168.637 170.719 169.352 171.355 168.254 175.446L164.431 173.513C164.444 173.513 141.06 107.418 129.738 105.922Z" fill="#212323"/>
<path d="M37.2588 134.905C37.2588 134.905 32.7354 129.714 25.4343 129.185C18.1333 128.655 19.3766 133.064 19.3766 133.064L37.2588 134.905Z" fill="#EEDEAE"/>
<path d="M37.2456 135.024C37.2456 135.024 29.0849 130.059 21.7839 132.416C14.4829 134.773 13.8744 133.661 11.9169 133.29C9.9594 132.919 7.53896 141.485 16.6652 143.723C25.7915 145.961 28.4103 145.021 28.4103 145.021C28.4103 145.021 34.2035 137.752 37.2456 135.024Z" fill="#EEDEAE"/>
<path d="M60.3919 152.778C60.5507 152.884 63.2356 154.817 64.8889 160.219C66.5951 165.806 66.1058 167.421 66.1058 167.421L60.3919 152.778ZM60.3787 152.778C60.3787 152.778 50.8821 142.596 37.907 135.34C37.907 135.34 33.8994 134.03 30.7911 138.319C27.6829 142.609 28.4104 145.019 28.4104 145.019C28.4104 145.019 51.7815 185.798 68.7643 178.172C85.7471 170.533 106.936 108.344 106.936 108.344C106.936 108.344 72.9306 118.631 60.3787 152.778Z" fill="#2D3031"/>
<path d="M60.3921 152.777L66.1059 167.421C66.1059 167.421 66.5953 165.806 64.8891 160.218C63.2358 154.816 60.5508 152.897 60.3921 152.777Z" fill="#2D3031"/>
<path d="M112.292 106.797C112.292 106.797 77.4142 118.342 73.3934 171.594C73.3934 171.594 72.6792 172.23 73.777 176.321L77.5994 174.388C77.5862 174.388 100.957 108.293 112.292 106.797Z" fill="#212323"/>
<path d="M165.542 192.142H77.3218C74.0284 121.758 110.56 106.121 110.56 106.121H131.021C131.021 106.108 169.92 124.922 165.542 192.142Z" fill="#2D3031"/>
<path d="M110.56 106.105L117.808 128.336L130.36 106.105H110.56Z" fill="white"/>
<path d="M120.043 106.82L114.422 117.836L110.586 106.105L120.043 106.82Z" fill="#D9E0F2"/>
<path d="M130.293 106.293L124.064 117.666L120.043 106.823L130.293 106.293Z" fill="#D9E0F2"/>
<path d="M115.493 114.155L116.512 117.558L121.22 117.465L122.781 114.394L120.043 106.82L115.493 114.155Z" fill="#C52227"/>
<path d="M116.578 117.518L115.242 120.497L117.795 128.375L121.882 121.172L121.221 117.465L116.578 117.518Z" fill="#C52227"/>
<path d="M159.696 143.352C159.696 143.352 171.018 188.408 138.269 191.89H165.542C165.542 191.89 168.584 164.205 159.696 143.352Z" fill="#1A1C1D"/>
<path d="M131.471 26.9705C131.471 26.9705 113.576 15.3325 93.2068 30.3203C72.8381 45.3081 84.0806 69.6037 95.7596 80.037C107.439 90.4702 142.515 83.016 150.914 74.0789C159.326 65.1418 155.133 22.694 131.471 26.9705Z" fill="#151718"/>
<path d="M110.56 93.2635V106.106C110.56 106.106 121.789 115.507 131.021 106.106V93.0781L110.56 93.2635Z" fill="#EEDEAE"/>
<path d="M90.9713 62.085C90.9713 62.085 84.1332 58.6955 83.948 67.765C83.7761 76.8345 93.6959 75.1265 93.6959 75.1265C93.6959 75.1265 91.3548 67.3413 90.9713 62.085Z" fill="#EEDEAE"/>
<path d="M147.898 61.7373C147.898 61.7373 154.736 58.3478 154.921 67.4173C155.093 76.4868 145.173 74.7788 145.173 74.7788C145.173 74.7788 147.514 66.9936 147.898 61.7373Z" fill="#EEDEAE"/>
<path d="M90.7861 59.2646C90.7861 59.2646 89.7148 96.2575 124.117 95.1586C124.117 95.1586 150.728 93.5168 147.501 54.8821C144.274 16.2474 88.6302 24.4695 90.7861 59.2646Z" fill="#EEDEAE"/>
<path d="M135.973 67.8338C136.364 66.2959 135.418 64.728 133.86 64.3318C132.302 63.9356 130.723 64.8611 130.333 66.399C129.942 67.9369 130.889 69.5048 132.446 69.901C134.004 70.2972 135.583 69.3717 135.973 67.8338Z" fill="black" stroke="black" stroke-miterlimit="10"/>
<path d="M138.613 66.6112C138.613 66.6112 134.486 60.4678 128.653 66.214C128.653 66.214 127.86 66.267 128.389 65.6712C128.918 65.0754 133.547 60.9974 138.428 65.5917C138.428 65.5917 139.605 66.9157 138.613 66.6112Z" fill="black" stroke="black" stroke-miterlimit="10"/>
<path d="M110.027 70.1829C111.534 69.6259 112.311 67.9678 111.763 66.4792C111.214 64.9907 109.547 64.2354 108.039 64.7924C106.532 65.3493 105.754 67.0075 106.303 68.496C106.852 69.9846 108.519 70.7398 110.027 70.1829Z" fill="black" stroke="black" stroke-miterlimit="10"/>
<path d="M103.563 67.2481C103.563 67.2481 107.399 60.9193 113.496 66.3478C113.496 66.3478 114.29 66.361 113.734 65.8049C113.179 65.2489 108.351 61.396 103.708 66.2286C103.695 66.2286 102.584 67.6056 103.563 67.2481Z" fill="black" stroke="black" stroke-miterlimit="10"/>
<path d="M127.225 62.5483L140.663 58.2188" stroke="black" stroke-miterlimit="10"/>
<path d="M113.668 81.9044C113.668 81.9044 128.283 80.5407 130.347 78.5547" stroke="black" stroke-miterlimit="10"/>
<path d="M100.64 79.9428C103.43 79.9428 105.692 78.1289 105.692 75.8913C105.692 73.6538 103.43 71.8398 100.64 71.8398C97.8495 71.8398 95.5874 73.6538 95.5874 75.8913C95.5874 78.1289 97.8495 79.9428 100.64 79.9428Z" fill="#FDCF9F"/>
<path d="M139.512 79.017C142.303 79.017 144.565 77.2031 144.565 74.9655C144.565 72.728 142.303 70.9141 139.512 70.9141C136.722 70.9141 134.46 72.728 134.46 74.9655C134.46 77.2031 136.722 79.017 139.512 79.017Z" fill="#FDCF9F"/>
<path d="M134.672 43.9579C134.672 43.9579 114.211 65.1818 92.6249 64.1623C92.6249 64.1623 90.7203 69.4186 95.2306 78.2365C95.2306 78.2365 91.5536 74.6087 90.9849 62.0836C90.4161 49.5584 128.231 23.674 139.552 37.8277C150.874 51.9814 147.925 70.9147 146.192 74.7279C146.192 74.7279 147.832 65.5128 146.099 61.7923C146.086 61.7923 137.873 60.3094 134.672 43.9579Z" fill="#FDCF9F"/>
<path d="M93.1009 62.7435C123.231 60.1881 135.174 41.2415 135.174 41.2415C135.174 41.2415 138.031 59.3011 147.938 61.671C147.938 61.671 150.742 18.4818 106.856 30.1595C106.856 30.1595 89.0669 35.4026 90.2176 59.8571L90.535 61.9491L93.1009 62.7435Z" fill="#151718"/>
<path d="M114.144 59.5957C114.144 59.5957 107.769 62.7469 102.439 59.4766" stroke="black" stroke-miterlimit="10"/>
<path d="M110.56 93.2635C110.56 93.2635 122.159 97.0766 131.021 93.0781C131.021 93.0781 128.005 98.8508 117.503 97.262C117.503 97.262 114.673 96.7059 110.56 93.2635Z" fill="#FDCF9F"/>
<path d="M130.717 100.77C130.717 100.77 123.284 118.962 110.692 101.83L110.573 106.106C110.573 106.106 122.146 115.414 131.035 106.106V100.32L130.717 100.77Z" fill="#FDCF9F"/>
<path d="M149.803 63.8986C149.803 63.8986 148.427 64.2429 149.803 66.348C151.178 68.4532 149.737 71.1277 149.036 71.3131C148.335 71.4984 150.953 71.3131 151.35 69.8831C151.747 68.4532 151.721 65.1035 151.02 64.4812C150.319 63.8721 149.803 63.8986 149.803 63.8986Z" fill="#FDCF9F"/>
<path d="M89.4372 64.3091C89.4372 64.3091 90.8128 64.6533 89.4372 66.7585C88.0616 68.8637 89.5033 71.5382 90.2043 71.7236C90.9053 71.9089 88.2865 71.7236 87.8897 70.2936C87.4929 68.8637 87.5194 65.514 88.2204 64.8917C88.9214 64.2694 89.4372 64.3091 89.4372 64.3091Z" fill="#FDCF9F"/>
<path d="M82.7977 143.855C82.7977 143.855 72.4811 189.163 105.296 191.904L78.0362 192.5C78.0362 192.5 74.3857 164.894 82.7977 143.855Z" fill="#1A1C1D"/>
<path d="M81.9905 161.77L169.708 161.822L196.942 189.839H55.6831L81.9905 161.77Z" fill="#CD901A"/>
<path d="M67.957 226.012V250.003H184.667V225.668L67.957 226.012Z" fill="#FBAF21"/>
<path d="M196.928 189.84H55.6831V226.343H196.928V189.84Z" fill="#FFD079"/>
<path d="M130.122 204.033C132.963 204.033 135.267 201.686 135.267 198.79C135.267 195.894 132.963 193.547 130.122 193.547C127.28 193.547 124.977 195.894 124.977 198.79C124.977 201.686 127.28 204.033 130.122 204.033Z" fill="#FBAF21"/>
<path d="M81.9907 161.77C81.9907 189.945 81.9907 189.945 81.9907 189.945H169.418V161.822L81.9907 161.77Z" fill="#FBAF21"/>
<defs>
<linearGradient id="paint0_linear_1236_72615" x1="240.974" y1="-11.11" x2="-14.4584" y2="0.656413" gradientUnits="userSpaceOnUse">
<stop stop-color="#C74545"/>
<stop offset="1" stop-color="#AA3636"/>
</linearGradient>
</defs>
</svg>
