<svg width="307" height="298" viewBox="0 0 307 298" fill="none" xmlns="http://www.w3.org/2000/svg">
<path opacity="0.56" d="M158.73 279.201C227.641 279.201 283.504 223.292 283.504 154.325C283.504 85.3581 227.641 29.4492 158.73 29.4492C89.8194 29.4492 33.9561 85.3581 33.9561 154.325C33.9561 223.292 89.8194 279.201 158.73 279.201Z" fill="#424755"/>
<path d="M51.2685 137.582H46.8145V185.608H51.2685V137.582Z" fill="#4D5EA4"/>
<path d="M181.504 99.1172L88.7754 99.1575L88.7955 99.1172H181.504Z" fill="#3D5BA9"/>
<path d="M235.074 194.465H226.831V200.355H235.074V194.465Z" fill="#1F4495"/>
<path d="M89.42 194.465V200.355H78.3957L78.2949 194.465H89.42Z" fill="#1F4495"/>
<path d="M167.598 226.454V276.114H148.673V226.414L154.981 226.434L167.598 226.454Z" fill="#1F4495"/>
<path d="M109.091 185.629H126.907V137.583H109.091V137.562H206.657V185.932H109.091V185.629Z" fill="#141E47"/>
<path d="M51.2681 137.582H46.814V185.628H46.7334V137.582H51.2681Z" fill="#4D5EA4"/>
<path d="M167.598 226.454L154.981 226.434L167.598 226.454Z" fill="#1F4495"/>
<path d="M109.09 137.582H89.4199V185.628H109.09V137.582Z" fill="#1F4495"/>
<path d="M234.55 211.852H226.831V217.741H234.55V211.852Z" fill="#1F4495"/>
<path d="M158.347 71.5039C188.578 71.5039 214.779 82.6986 227.879 99.1174H88.8154C101.815 82.6986 128.076 71.5039 158.347 71.5039Z" fill="#3D5BA9"/>
<path d="M126.907 137.582H109.091V185.628H126.907V137.582Z" fill="#141E47"/>
<path d="M226.831 194.465V200.355H89.4199V194.465H225.621H226.831Z" fill="#1F4495"/>
<path d="M226.831 200.355V211.853H225.097H89.4199V200.355H226.831Z" fill="#3D5BA9"/>
<path d="M226.831 211.852V217.741H89.4199V211.852H225.097H226.831Z" fill="#1F4495"/>
<path d="M236.102 99.1172V108.678H89.4205H79.424L79.3232 99.1172H88.7957L88.7755 99.1575L181.505 99.1172H226.67H236.102Z" fill="#1F4495"/>
<path d="M226.831 217.742V226.617L167.598 226.456L154.981 226.436L89.4199 226.254V217.742H226.831Z" fill="#3D5BA9"/>
<path d="M206.656 137.564H109.09V137.584H89.4199V108.68L226.831 108.72V194.465H225.621H89.4199V185.63H109.09V185.933H206.656V137.564Z" fill="#3D5BA9"/>
<path d="M89.4196 211.852V217.741H77.8511L77.7705 211.852H89.4196Z" fill="#1F4495"/>
<path d="M89.4203 137.582V185.628H46.8145H51.2685V137.582H89.4203Z" fill="#1F4495"/>
<path d="M141.035 53.7327V56.2339H132.832V46.3906H140.894V48.9119H136.097V50.0617H140.289V52.4418H136.097V53.7529L141.035 53.7327Z" fill="#BE1E2D"/>
<path d="M146.557 53.754H145.609V56.235H142.324V46.3918H147.081C147.897 46.3754 148.708 46.5336 149.459 46.8557C150.1 47.1191 150.648 47.5687 151.031 48.1466C151.408 48.7501 151.597 49.4522 151.575 50.1637C151.587 50.8124 151.427 51.4527 151.111 52.0194C150.775 52.5593 150.293 52.9929 149.721 53.2699L151.736 56.3157H148.229L146.557 53.754ZM147.887 49.2358C147.6 49.0141 147.241 48.9064 146.879 48.9333H145.609V51.2529H146.839C147.2 51.2798 147.559 51.172 147.846 50.9503C147.962 50.8385 148.052 50.7033 148.111 50.5537C148.17 50.4041 148.197 50.2436 148.189 50.083C148.202 49.9284 148.182 49.7728 148.129 49.6267C148.077 49.4806 147.995 49.3473 147.887 49.2358Z" fill="#BE1E2D"/>
<path d="M157.077 53.7537H156.17V56.2347H152.845V46.3915H157.702C158.518 46.3776 159.329 46.5356 160.08 46.8554C160.715 47.1298 161.259 47.5771 161.652 48.1463C162.029 48.7498 162.219 49.4519 162.196 50.1634C162.211 50.815 162.044 51.4578 161.713 52.0191C161.379 52.5541 160.905 52.9868 160.342 53.2696L162.357 56.3154H158.75L157.077 53.7537ZM158.407 49.2355C158.111 49.0173 157.747 48.9102 157.379 48.933H156.17V51.2526H157.379C157.747 51.2753 158.111 51.1682 158.407 50.95C158.519 50.8364 158.606 50.7004 158.661 50.5509C158.717 50.4014 158.74 50.2418 158.73 50.0827C158.74 49.9266 158.716 49.7701 158.661 49.6239C158.605 49.4777 158.519 49.3453 158.407 49.2355Z" fill="#BE1E2D"/>
<path d="M165.764 55.8108C164.935 55.3895 164.237 54.7474 163.749 53.9551C163.286 53.1443 163.042 52.2265 163.042 51.2926C163.042 50.3587 163.286 49.4409 163.749 48.6301C164.244 47.8485 164.94 47.2146 165.764 46.7946C166.655 46.3566 167.634 46.1289 168.626 46.1289C169.618 46.1289 170.597 46.3566 171.488 46.7946C172.312 47.2146 173.008 47.8485 173.503 48.6301C173.978 49.4369 174.229 50.3562 174.229 51.2926C174.229 52.229 173.978 53.1484 173.503 53.9551C173.015 54.7474 172.317 55.3895 171.488 55.8108C170.597 56.2488 169.618 56.4765 168.626 56.4765C167.634 56.4765 166.655 56.2488 165.764 55.8108ZM169.795 53.471C170.13 53.2583 170.402 52.9586 170.581 52.6037C170.78 52.199 170.884 51.7538 170.884 51.3027C170.884 50.8515 170.78 50.4064 170.581 50.0017C170.402 49.6468 170.13 49.347 169.795 49.1344C169.454 48.9315 169.063 48.8268 168.666 48.8318C168.251 48.794 167.834 48.8862 167.473 49.0957C167.112 49.3053 166.824 49.6219 166.651 50.0017C166.452 50.4064 166.348 50.8515 166.348 51.3027C166.348 51.7538 166.452 52.199 166.651 52.6037C166.824 52.9835 167.112 53.3001 167.473 53.5096C167.834 53.7192 168.251 53.8114 168.666 53.7736C169.015 53.7543 169.354 53.6504 169.654 53.471H169.795Z" fill="#BE1E2D"/>
<path d="M179.549 53.7537H178.642V56.2347H175.316V46.3915H180.073C180.889 46.3776 181.699 46.5356 182.451 46.8554C183.085 47.1298 183.63 47.5771 184.023 48.1463C184.4 48.7498 184.59 49.4519 184.567 50.1634C184.582 50.815 184.415 51.4578 184.083 52.0191C183.75 52.5541 183.276 52.9868 182.713 53.2696L184.728 56.3154H181.222L179.549 53.7537ZM180.879 49.2355C180.582 49.0173 180.219 48.9102 179.851 48.933H178.642V51.2526H179.871C180.239 51.2753 180.602 51.1682 180.899 50.95C181.011 50.8364 181.098 50.7004 181.153 50.5509C181.209 50.4014 181.232 50.2418 181.222 50.0827C181.229 49.9251 181.202 49.7677 181.143 49.6214C181.084 49.4751 180.994 49.3435 180.879 49.2355Z" fill="#BE1E2D"/>
<path d="M206.334 119.309H109.595V128.406H206.334V119.309Z" fill="#1F4495"/>
<path d="M147.322 86.7333H144.138V90.7674H136.278V86.7333H123.843V81.6705L133.92 66.9258H142.223L133.174 80.5207H136.419V76.8699H144.037V80.5207H147.222L147.322 86.7333Z" fill="#A6ABD6"/>
<path d="M153.672 89.9825C152.002 88.9478 150.671 87.4475 149.842 85.666C148.869 83.5568 148.393 81.2517 148.452 78.9291C148.389 76.606 148.865 74.2999 149.842 72.1921C150.674 70.407 152.004 68.9009 153.672 67.8554C155.388 66.8775 157.33 66.3633 159.305 66.3633C161.28 66.3633 163.221 66.8775 164.938 67.8554C166.612 68.8997 167.948 70.4056 168.787 72.1921C169.765 74.2999 170.241 76.606 170.178 78.9291C170.237 81.2517 169.761 83.5568 168.787 85.666C167.948 87.447 166.611 88.9463 164.938 89.9825C163.221 90.9605 161.28 91.4747 159.305 91.4747C157.33 91.4747 155.388 90.9605 153.672 89.9825ZM162.056 78.9291C162.056 74.8949 161.129 72.8779 159.315 72.8779C157.501 72.8779 156.574 74.8949 156.574 78.9291C156.574 82.9632 157.481 84.9802 159.315 84.9802C161.149 84.9802 162.056 82.9632 162.056 78.9291Z" fill="#A6ABD6"/>
<path d="M195.431 86.7333H192.226V90.7674H184.386V86.7333H171.951V81.6705L182.129 66.9258H190.412L181.383 80.5207H184.628V76.8699H192.226V80.5207H195.431V86.7333Z" fill="#A6ABD6"/>
<path d="M145.61 86.5314H142.465V90.5655H134.626V86.5314H122.19V81.3879L132.368 66.5625H140.652L131.623 80.1776H134.867V76.6478H142.465V80.3188H145.61V86.5314Z" fill="#CED1E9"/>
<path d="M152.018 89.6967C150.341 88.6651 149.003 87.1645 148.169 85.3802C147.264 83.2496 146.798 80.9583 146.798 78.6433C146.798 76.3282 147.264 74.0369 148.169 71.9063C149.008 70.1253 150.345 68.626 152.018 67.5898C153.735 66.6119 155.676 66.0977 157.651 66.0977C159.627 66.0977 161.568 66.6119 163.284 67.5898C164.954 68.6245 166.285 70.1248 167.114 71.9063C168.031 74.0337 168.504 76.3263 168.504 78.6433C168.504 80.9603 168.031 83.2528 167.114 85.3802C166.294 87.1677 164.961 88.6704 163.284 89.6967C161.568 90.6747 159.627 91.1889 157.651 91.1889C155.676 91.1889 153.735 90.6747 152.018 89.6967ZM160.382 78.6634C160.382 74.6293 159.475 72.6123 157.641 72.6123C155.807 72.6123 154.9 74.6293 154.9 78.6634C154.9 82.6976 155.827 84.7146 157.641 84.7146C159.455 84.7146 160.382 82.6976 160.382 78.6634Z" fill="#CED1E9"/>
<path d="M193.758 86.5327H190.574V90.5668H182.734V86.5327H170.299V81.3892L180.376 66.6445H188.659L179.61 80.2597H182.875V76.6491H190.473V80.3202H193.657L193.758 86.5327Z" fill="#CED1E9"/>
<path d="M147.081 101.883L146.234 106.119H145.61L143.876 103.154L143.292 106.119H142.506L143.352 101.883H143.997L145.731 104.888L146.315 101.923L147.081 101.883Z" fill="#CED1E9"/>
<path d="M148.089 105.975C147.859 105.868 147.669 105.691 147.544 105.47C147.403 105.248 147.332 104.988 147.343 104.724C147.341 104.386 147.424 104.053 147.585 103.756C147.744 103.472 147.982 103.241 148.27 103.09C148.573 102.926 148.913 102.843 149.257 102.848C149.544 102.841 149.827 102.903 150.084 103.03C150.312 103.129 150.503 103.299 150.628 103.514C150.767 103.737 150.838 103.997 150.829 104.26C150.831 104.598 150.748 104.931 150.588 105.228C150.418 105.509 150.183 105.745 149.902 105.914C149.599 106.078 149.259 106.161 148.915 106.156C148.629 106.165 148.345 106.103 148.089 105.975ZM149.519 105.349C149.692 105.25 149.832 105.103 149.923 104.926C150.021 104.733 150.07 104.517 150.064 104.3C150.074 104.189 150.06 104.077 150.021 103.973C149.983 103.868 149.922 103.773 149.842 103.695C149.668 103.549 149.444 103.476 149.217 103.494C149.019 103.485 148.823 103.534 148.653 103.635C148.479 103.741 148.339 103.895 148.25 104.079C148.149 104.271 148.101 104.487 148.109 104.704C148.1 104.812 148.115 104.92 148.153 105.021C148.192 105.123 148.252 105.214 148.33 105.289C148.501 105.443 148.726 105.523 148.955 105.511C149.155 105.513 149.351 105.457 149.519 105.349Z" fill="#CED1E9"/>
<path d="M152.281 105.028C152.273 105.075 152.273 105.123 152.281 105.169C152.281 105.412 152.401 105.533 152.663 105.533C152.813 105.536 152.961 105.494 153.087 105.412L153.228 105.956C152.991 106.098 152.718 106.168 152.442 106.158C152.2 106.168 151.964 106.089 151.777 105.936C151.689 105.854 151.62 105.754 151.574 105.642C151.529 105.531 151.509 105.411 151.515 105.29C151.505 105.203 151.505 105.115 151.515 105.028L151.817 103.515H151.293L151.414 102.91H151.938L152.099 102.164H152.845L152.704 102.91H153.671L153.55 103.515H152.684L152.281 105.028Z" fill="#CED1E9"/>
<path d="M157.016 102.548L156.754 103.839H158.77L158.629 104.485H156.613L156.291 106.119H155.505L156.351 101.883H159.435L159.294 102.548H157.016Z" fill="#CED1E9"/>
<path d="M159.979 105.975C159.749 105.868 159.559 105.691 159.435 105.47C159.293 105.248 159.223 104.988 159.233 104.724C159.232 104.386 159.315 104.053 159.475 103.756C159.64 103.477 159.877 103.247 160.161 103.09C160.464 102.926 160.804 102.843 161.148 102.848C161.434 102.841 161.718 102.903 161.974 103.03C162.205 103.134 162.4 103.302 162.539 103.514C162.662 103.743 162.725 104 162.72 104.26C162.722 104.598 162.639 104.931 162.478 105.228C162.309 105.509 162.074 105.745 161.793 105.914C161.49 106.078 161.15 106.161 160.805 106.156C160.519 106.163 160.236 106.101 159.979 105.975ZM161.43 105.349C161.569 105.223 161.673 105.063 161.733 104.885C161.831 104.692 161.88 104.477 161.874 104.26C161.884 104.149 161.87 104.037 161.831 103.932C161.793 103.828 161.732 103.733 161.652 103.655C161.478 103.508 161.254 103.436 161.027 103.453C160.829 103.445 160.633 103.494 160.463 103.595C160.289 103.701 160.149 103.855 160.06 104.038C159.959 104.231 159.911 104.446 159.919 104.664C159.915 104.771 159.933 104.878 159.971 104.978C160.009 105.079 160.066 105.171 160.14 105.248C160.311 105.402 160.536 105.482 160.765 105.47C160.994 105.498 161.226 105.456 161.43 105.349Z" fill="#CED1E9"/>
<path d="M166.872 102.871L166.227 106.098H165.502V105.735C165.205 106.006 164.815 106.15 164.413 106.139C164.106 106.154 163.804 106.053 163.567 105.856C163.458 105.754 163.372 105.628 163.316 105.489C163.261 105.349 163.236 105.199 163.245 105.05C163.234 104.922 163.234 104.794 163.245 104.666L163.748 102.871H164.494L164.131 104.646C164.131 104.646 164.131 104.807 164.131 104.888C164.129 105.051 164.186 105.209 164.293 105.332C164.435 105.429 164.604 105.479 164.776 105.473C165.027 105.483 165.272 105.396 165.461 105.231C165.66 105.052 165.788 104.81 165.824 104.545L166.167 102.871H166.872Z" fill="#CED1E9"/>
<path d="M170.48 103.132C170.592 103.233 170.679 103.358 170.735 103.498C170.791 103.638 170.814 103.789 170.803 103.939C170.81 104.066 170.81 104.194 170.803 104.322L170.44 106.117H169.694L170.037 104.342C170.047 104.262 170.047 104.181 170.037 104.1C170.037 103.697 169.835 103.515 169.392 103.515C169.143 103.498 168.898 103.578 168.707 103.737C168.508 103.924 168.38 104.173 168.344 104.443L168.001 106.117H167.235L167.78 102.87H168.505V103.213C168.813 102.95 169.209 102.813 169.614 102.829C169.93 102.819 170.239 102.926 170.48 103.132Z" fill="#CED1E9"/>
<path d="M175.438 101.621L174.551 106.119H173.826V105.776C173.546 106.034 173.177 106.171 172.798 106.159C172.547 106.163 172.298 106.108 172.072 105.998C171.856 105.879 171.675 105.705 171.548 105.494C171.422 105.259 171.36 104.994 171.367 104.727C171.365 104.389 171.448 104.057 171.609 103.759C171.758 103.482 171.982 103.252 172.254 103.094C172.535 102.931 172.856 102.848 173.181 102.851C173.408 102.845 173.635 102.886 173.846 102.973C174.024 103.06 174.177 103.192 174.289 103.356L174.632 101.621H175.438ZM173.604 105.353C173.776 105.253 173.916 105.106 174.007 104.929C174.106 104.736 174.154 104.521 174.148 104.304C174.153 104.193 174.137 104.083 174.099 103.979C174.06 103.875 174.002 103.78 173.926 103.699C173.753 103.552 173.528 103.48 173.302 103.497C173.104 103.489 172.908 103.538 172.737 103.638C172.563 103.745 172.423 103.899 172.334 104.082C172.234 104.275 172.185 104.49 172.193 104.707C172.189 104.815 172.207 104.922 172.245 105.022C172.283 105.122 172.341 105.214 172.415 105.292C172.585 105.446 172.81 105.526 173.04 105.514C173.239 105.516 173.435 105.46 173.604 105.353Z" fill="#CED1E9"/>
</svg>
