<svg width="307" height="297" viewBox="0 0 307 297" fill="none" xmlns="http://www.w3.org/2000/svg">
<path opacity="0.56" d="M155.941 280.643C224.929 280.643 280.855 224.664 280.855 155.611C280.855 86.5571 224.929 30.5781 155.941 30.5781C86.9533 30.5781 31.0273 86.5571 31.0273 155.611C31.0273 224.664 86.9533 280.643 155.941 280.643Z" fill="#444D65"/>
<path d="M232.351 195.797H224.099V201.694H232.351V195.797Z" fill="#1F4495"/>
<path d="M231.826 213.207H224.099V219.104H231.826V213.207Z" fill="#1F4495"/>
<path d="M224.119 213.207H222.383H86.5537V201.695H224.119V213.207Z" fill="#3D5BA9"/>
<path d="M224.119 227.992L164.819 227.83L150.615 227.81L86.5537 227.648V219.105H224.119V227.992Z" fill="#3D5BA9"/>
<path d="M224.119 219.104H86.5537V213.207H222.383H224.119V219.104Z" fill="#1F4495"/>
<path d="M200.249 162.134C200.269 161.395 200.069 160.667 199.673 160.043C199.278 159.419 198.705 158.927 198.029 158.63C197.353 158.333 196.603 158.245 195.876 158.377C195.15 158.508 194.479 158.854 193.95 159.37C193.42 159.885 193.056 160.547 192.905 161.27C192.753 161.994 192.821 162.746 193.098 163.431C193.376 164.116 193.852 164.702 194.464 165.115C195.077 165.528 195.798 165.749 196.537 165.749C197.507 165.76 198.443 165.386 199.138 164.708C199.834 164.031 200.233 163.105 200.249 162.134ZM203.962 138.828V187.298H106.246V159.973H108.022L124.95 138.828H203.942H203.962Z" fill="#1F4495"/>
<path d="M200.25 162.131C200.27 162.87 200.069 163.598 199.674 164.222C199.278 164.846 198.706 165.338 198.029 165.635C197.353 165.932 196.604 166.02 195.877 165.888C195.15 165.757 194.479 165.411 193.95 164.895C193.421 164.38 193.057 163.718 192.905 162.995C192.754 162.271 192.821 161.519 193.099 160.834C193.377 160.149 193.852 159.563 194.465 159.15C195.077 158.737 195.799 158.516 196.537 158.516C197.508 158.505 198.443 158.879 199.139 159.557C199.834 160.234 200.234 161.16 200.25 162.131Z" fill="#F6F8FC"/>
<path d="M155.558 72.7031C185.823 72.7031 212.053 83.9118 225.168 100.331H85.9482C98.9824 83.9118 125.252 72.7031 155.558 72.7031Z" fill="#3D5BA9"/>
<path d="M164.819 227.829V277.572H145.873V227.789L150.615 227.809L164.819 227.829Z" fill="#1F4495"/>
<path d="M164.819 227.829L150.614 227.809L164.819 227.829Z" fill="#1F4495"/>
<path d="M86.5537 195.797H222.908H224.119V201.694H86.5537V195.797Z" fill="#1F4495"/>
<path d="M203.942 187.236V138.766H106.246V187.236H203.942ZM224.119 109.947V195.9H86.5537V109.906L224.119 109.947Z" fill="#3D5BA9"/>
<path d="M85.9075 100.372L165.484 100.332H223.957H233.399V109.905H86.5532H76.5657L76.4648 100.332H85.9277L85.9075 100.372Z" fill="#1F4495"/>
<path d="M85.9284 100.332H165.485L85.9082 100.372L85.9284 100.332Z" fill="#3D5BA9"/>
<path d="M124.95 138.828L108.022 159.973H106.246V138.828H124.95Z" fill="#1F4495"/>
<path d="M86.5537 213.207V219.104H74.9925L74.8916 213.207H86.5537Z" fill="#1F4495"/>
<path d="M86.5536 195.797V201.694H75.5169L75.416 195.797H86.5536Z" fill="#1F4495"/>
<path d="M203.336 116.672H106.488V125.78H203.336V116.672Z" fill="#1F4495"/>
<path d="M186.207 144.52H152.088V183.457H186.207V144.52Z" fill="#2B2C47"/>
<path d="M184.108 146.238H153.621V155.69H184.108V146.238Z" fill="#393B5E"/>
<path d="M161.349 158.195H154.227V165.324H161.349V158.195Z" fill="#393B5E"/>
<path d="M169.359 158.195H162.236V165.324H169.359V158.195Z" fill="#393B5E"/>
<path d="M177.491 158.195H170.368V165.324H177.491V158.195Z" fill="#393B5E"/>
<path d="M161.349 166.312H154.227V173.442H161.349V166.312Z" fill="#393B5E"/>
<path d="M169.359 166.312H162.236V173.442H169.359V166.312Z" fill="#393B5E"/>
<path d="M177.491 166.312H170.368V173.442H177.491V166.312Z" fill="#393B5E"/>
<path d="M161.349 174.352H154.227V181.481H161.349V174.352Z" fill="#393B5E"/>
<path d="M169.359 174.352H162.236V181.481H169.359V174.352Z" fill="#393B5E"/>
<path d="M177.491 174.352H170.368V181.481H177.491V174.352Z" fill="#393B5E"/>
<path d="M157.209 159.545V161H157.033V159.73H157.024L156.669 159.966V159.787L157.033 159.545H157.209Z" fill="#F1F2F2"/>
<path d="M165.091 161V160.872L165.571 160.347C165.627 160.285 165.674 160.232 165.71 160.186C165.747 160.14 165.774 160.097 165.791 160.057C165.809 160.016 165.818 159.973 165.818 159.929C165.818 159.878 165.806 159.834 165.781 159.796C165.757 159.759 165.724 159.73 165.682 159.71C165.64 159.689 165.592 159.679 165.54 159.679C165.484 159.679 165.435 159.691 165.394 159.714C165.352 159.737 165.32 159.768 165.298 159.81C165.275 159.851 165.264 159.899 165.264 159.955H165.097C165.097 159.869 165.116 159.795 165.156 159.73C165.195 159.666 165.248 159.616 165.316 159.58C165.384 159.544 165.461 159.526 165.546 159.526C165.631 159.526 165.706 159.544 165.772 159.58C165.838 159.616 165.89 159.664 165.927 159.725C165.964 159.786 165.983 159.854 165.983 159.929C165.983 159.982 165.973 160.035 165.954 160.086C165.935 160.137 165.902 160.193 165.854 160.256C165.808 160.318 165.743 160.393 165.659 160.483L165.332 160.832V160.844H166.009V161H165.091Z" fill="#F1F2F2"/>
<path d="M174.339 161.02C174.246 161.02 174.162 161.004 174.089 160.972C174.016 160.939 173.958 160.895 173.915 160.837C173.872 160.78 173.849 160.713 173.845 160.636H174.024C174.028 160.683 174.044 160.724 174.072 160.758C174.101 160.791 174.138 160.817 174.184 160.836C174.23 160.854 174.281 160.864 174.336 160.864C174.399 160.864 174.454 160.853 174.503 160.831C174.551 160.809 174.589 160.779 174.616 160.74C174.644 160.701 174.657 160.656 174.657 160.605C174.657 160.552 174.644 160.504 174.618 160.464C174.591 160.423 174.552 160.39 174.501 160.367C174.45 160.344 174.388 160.332 174.314 160.332H174.197V160.176H174.314C174.372 160.176 174.422 160.166 174.466 160.145C174.51 160.124 174.544 160.095 174.569 160.057C174.594 160.019 174.606 159.974 174.606 159.923C174.606 159.874 174.595 159.831 174.574 159.795C174.552 159.758 174.521 159.73 174.481 159.71C174.442 159.689 174.396 159.679 174.342 159.679C174.292 159.679 174.245 159.688 174.2 159.707C174.156 159.725 174.12 159.751 174.092 159.786C174.064 159.82 174.049 159.861 174.047 159.909H173.876C173.879 159.833 173.902 159.766 173.945 159.709C173.988 159.651 174.045 159.606 174.114 159.574C174.184 159.542 174.261 159.526 174.345 159.526C174.435 159.526 174.512 159.544 174.577 159.58C174.641 159.616 174.69 159.664 174.725 159.723C174.76 159.782 174.777 159.846 174.777 159.915C174.777 159.997 174.755 160.067 174.712 160.124C174.67 160.182 174.612 160.222 174.538 160.244V160.256C174.63 160.271 174.702 160.31 174.753 160.373C174.805 160.435 174.831 160.513 174.831 160.605C174.831 160.684 174.809 160.755 174.766 160.818C174.724 160.881 174.665 160.93 174.591 160.966C174.518 161.002 174.434 161.02 174.339 161.02Z" fill="#F1F2F2"/>
<path d="M156.482 169.206V169.061L157.121 168.049H157.226V168.274H157.155L156.672 169.038V169.049H157.533V169.206H156.482ZM157.166 169.504V169.162V169.094V168.049H157.334V169.504H157.166Z" fill="#F1F2F2"/>
<path d="M165.343 169.524C165.26 169.524 165.185 169.507 165.118 169.474C165.051 169.441 164.998 169.395 164.958 169.338C164.917 169.28 164.895 169.214 164.892 169.14H165.062C165.069 169.206 165.099 169.261 165.152 169.304C165.205 169.346 165.269 169.368 165.343 169.368C165.403 169.368 165.456 169.354 165.502 169.326C165.549 169.298 165.586 169.259 165.613 169.211C165.64 169.161 165.653 169.106 165.653 169.044C165.653 168.98 165.639 168.924 165.611 168.874C165.584 168.824 165.546 168.784 165.498 168.755C165.449 168.726 165.394 168.712 165.332 168.711C165.288 168.711 165.242 168.718 165.195 168.732C165.148 168.746 165.109 168.763 165.079 168.785L164.914 168.765L165.002 168.049H165.758V168.206H165.15L165.099 168.635H165.108C165.137 168.611 165.175 168.591 165.22 168.576C165.265 168.56 165.312 168.552 165.36 168.552C165.449 168.552 165.529 168.574 165.598 168.616C165.668 168.658 165.723 168.716 165.763 168.789C165.803 168.863 165.824 168.947 165.824 169.041C165.824 169.134 165.803 169.217 165.761 169.289C165.72 169.362 165.663 169.419 165.591 169.461C165.518 169.503 165.436 169.524 165.343 169.524Z" fill="#F1F2F2"/>
<path d="M174.129 169.524C174.069 169.523 174.009 169.511 173.95 169.49C173.89 169.468 173.836 169.431 173.786 169.38C173.737 169.328 173.698 169.257 173.668 169.169C173.638 169.08 173.623 168.968 173.623 168.833C173.623 168.705 173.635 168.591 173.659 168.491C173.683 168.391 173.718 168.307 173.764 168.239C173.81 168.17 173.866 168.118 173.93 168.083C173.996 168.047 174.069 168.029 174.151 168.029C174.233 168.029 174.305 168.046 174.369 168.078C174.433 168.111 174.485 168.156 174.525 168.213C174.565 168.271 174.591 168.338 174.603 168.413H174.43C174.414 168.348 174.382 168.293 174.336 168.25C174.29 168.207 174.228 168.186 174.151 168.186C174.039 168.186 173.95 168.235 173.885 168.333C173.821 168.431 173.788 168.568 173.788 168.745H173.799C173.826 168.705 173.857 168.671 173.894 168.642C173.93 168.614 173.971 168.591 174.016 168.576C174.06 168.56 174.107 168.552 174.157 168.552C174.24 168.552 174.317 168.573 174.386 168.615C174.455 168.656 174.51 168.713 174.552 168.786C174.594 168.858 174.614 168.941 174.614 169.035C174.614 169.125 174.594 169.208 174.554 169.282C174.514 169.357 174.457 169.416 174.384 169.46C174.312 169.503 174.227 169.525 174.129 169.524ZM174.129 169.368C174.188 169.368 174.242 169.353 174.289 169.323C174.337 169.293 174.375 169.253 174.402 169.203C174.43 169.153 174.444 169.097 174.444 169.035C174.444 168.975 174.43 168.92 174.403 168.871C174.377 168.821 174.34 168.782 174.293 168.752C174.247 168.723 174.194 168.708 174.134 168.708C174.089 168.708 174.047 168.717 174.009 168.735C173.97 168.753 173.936 168.777 173.906 168.808C173.877 168.839 173.855 168.874 173.838 168.914C173.822 168.953 173.813 168.994 173.813 169.038C173.813 169.096 173.827 169.15 173.854 169.2C173.881 169.25 173.919 169.291 173.966 169.321C174.014 169.352 174.068 169.368 174.129 169.368Z" fill="#F1F2F2"/>
<path d="M156.641 177.402L157.292 176.115V176.104H156.542V175.948H157.474V176.113L156.826 177.402H156.641Z" fill="#F1F2F2"/>
<path d="M165.455 177.422C165.358 177.422 165.272 177.405 165.197 177.37C165.122 177.335 165.064 177.287 165.023 177.226C164.981 177.165 164.961 177.095 164.961 177.016C164.961 176.954 164.973 176.898 164.997 176.846C165.022 176.793 165.055 176.749 165.098 176.714C165.141 176.679 165.189 176.656 165.242 176.647V176.638C165.173 176.62 165.117 176.581 165.076 176.521C165.035 176.46 165.015 176.391 165.015 176.314C165.015 176.24 165.033 176.174 165.071 176.116C165.109 176.058 165.161 176.012 165.227 175.978C165.294 175.945 165.37 175.928 165.455 175.928C165.54 175.928 165.615 175.945 165.681 175.978C165.747 176.012 165.8 176.058 165.837 176.116C165.876 176.174 165.895 176.24 165.896 176.314C165.895 176.391 165.874 176.46 165.832 176.521C165.791 176.581 165.737 176.62 165.668 176.638V176.647C165.721 176.656 165.768 176.679 165.81 176.714C165.853 176.749 165.886 176.793 165.911 176.846C165.936 176.898 165.949 176.954 165.95 177.016C165.949 177.095 165.928 177.165 165.886 177.226C165.844 177.287 165.786 177.335 165.712 177.37C165.638 177.405 165.552 177.422 165.455 177.422ZM165.455 177.266C165.521 177.266 165.578 177.255 165.626 177.234C165.674 177.213 165.711 177.183 165.737 177.144C165.763 177.105 165.776 177.06 165.776 177.007C165.776 176.953 165.762 176.904 165.734 176.862C165.706 176.82 165.668 176.787 165.619 176.762C165.572 176.738 165.517 176.726 165.455 176.726C165.393 176.726 165.338 176.738 165.289 176.762C165.241 176.787 165.203 176.82 165.175 176.862C165.147 176.904 165.134 176.953 165.134 177.007C165.134 177.06 165.146 177.105 165.172 177.144C165.198 177.183 165.235 177.213 165.283 177.234C165.332 177.255 165.389 177.266 165.455 177.266ZM165.455 176.576C165.507 176.576 165.554 176.565 165.594 176.544C165.635 176.524 165.667 176.494 165.69 176.457C165.713 176.42 165.725 176.376 165.725 176.326C165.725 176.276 165.713 176.234 165.69 176.197C165.668 176.16 165.636 176.132 165.596 176.112C165.556 176.092 165.509 176.081 165.455 176.081C165.401 176.081 165.353 176.092 165.313 176.112C165.272 176.132 165.24 176.16 165.218 176.197C165.196 176.234 165.185 176.276 165.185 176.326C165.185 176.376 165.196 176.42 165.219 176.457C165.242 176.494 165.274 176.524 165.315 176.544C165.355 176.565 165.402 176.576 165.455 176.576Z" fill="#F1F2F2"/>
<path d="M174.209 175.928C174.269 175.928 174.329 175.94 174.388 175.962C174.448 175.984 174.502 176.021 174.552 176.073C174.601 176.124 174.64 176.194 174.67 176.282C174.7 176.371 174.715 176.482 174.715 176.615C174.715 176.745 174.703 176.859 174.678 176.96C174.654 177.06 174.619 177.144 174.573 177.213C174.528 177.281 174.472 177.333 174.407 177.369C174.342 177.404 174.269 177.422 174.187 177.422C174.105 177.422 174.032 177.406 173.969 177.374C173.905 177.341 173.853 177.296 173.812 177.238C173.772 177.18 173.746 177.113 173.735 177.036H173.908C173.924 177.103 173.955 177.158 174.001 177.201C174.048 177.244 174.11 177.266 174.187 177.266C174.299 177.266 174.387 177.217 174.452 177.119C174.518 177.021 174.55 176.882 174.55 176.703H174.539C174.512 176.743 174.481 176.778 174.444 176.806C174.408 176.835 174.367 176.858 174.323 176.873C174.278 176.889 174.231 176.897 174.181 176.897C174.098 176.897 174.021 176.876 173.952 176.835C173.882 176.793 173.827 176.736 173.785 176.664C173.744 176.591 173.724 176.507 173.724 176.414C173.724 176.325 173.743 176.243 173.783 176.169C173.823 176.095 173.88 176.036 173.952 175.992C174.025 175.948 174.111 175.926 174.209 175.928ZM174.209 176.084C174.15 176.084 174.096 176.099 174.048 176.129C174.001 176.158 173.963 176.198 173.935 176.248C173.908 176.298 173.894 176.353 173.894 176.414C173.894 176.474 173.907 176.529 173.934 176.579C173.961 176.628 173.997 176.668 174.044 176.697C174.091 176.726 174.144 176.74 174.204 176.74C174.249 176.74 174.291 176.732 174.329 176.714C174.368 176.696 174.402 176.672 174.431 176.641C174.46 176.61 174.483 176.574 174.5 176.535C174.516 176.495 174.525 176.454 174.525 176.411C174.525 176.354 174.511 176.301 174.483 176.251C174.456 176.201 174.419 176.161 174.371 176.13C174.324 176.1 174.27 176.084 174.209 176.084Z" fill="#F1F2F2"/>
<path d="M142.584 91.3851H139.376V95.4243H131.527V91.3851H119.078V86.2351L129.166 71.4922H137.459L128.42 85.1042H131.668V81.4285H139.275V85.1042H142.483L142.584 91.3851Z" fill="#A6ABD6"/>
<path d="M148.94 94.5785C147.27 93.5357 145.932 92.036 145.086 90.2566C144.181 88.1196 143.715 85.8222 143.715 83.5011C143.715 81.18 144.181 78.8826 145.086 76.7456C145.932 74.9662 147.27 73.4665 148.94 72.4237C150.659 71.4445 152.602 70.9297 154.58 70.9297C156.557 70.9297 158.5 71.4445 160.219 72.4237C161.89 73.4597 163.223 74.9619 164.052 76.7456C164.971 78.8791 165.445 81.1779 165.445 83.5011C165.445 85.8244 164.971 88.1231 164.052 90.2566C163.223 92.0403 161.89 93.5425 160.219 94.5785C158.5 95.5577 156.557 96.0725 154.58 96.0725C152.602 96.0725 150.659 95.5577 148.94 94.5785ZM157.313 83.491C157.313 79.4518 156.406 77.4323 154.569 77.4323C152.733 77.4323 151.846 79.4518 151.846 83.491C151.846 87.5302 152.754 89.5498 154.569 89.5498C156.385 89.5498 157.313 87.5504 157.313 83.491Z" fill="#A6ABD6"/>
<path d="M184.855 83.4911C185.857 84.7122 186.387 86.2534 186.348 87.8332C186.353 89.267 185.939 90.671 185.157 91.8724C184.258 93.2193 182.99 94.2781 181.505 94.9219C179.595 95.7414 177.531 96.1408 175.452 96.0933C173.748 96.096 172.05 95.9063 170.388 95.5278C168.837 95.21 167.342 94.6656 165.949 93.9121L168.693 87.8534C170.666 88.9643 172.886 89.5615 175.15 89.5902C175.93 89.6328 176.709 89.4728 177.41 89.1257C177.671 89.005 177.892 88.8111 178.046 88.5674C178.2 88.3237 178.28 88.0407 178.277 87.7524C178.277 86.6416 177.329 86.0964 175.432 86.0964H172.184V81.209L175.715 77.5939H167.14V71.5352H185.036V76.5033L180.577 80.9868C182.237 81.3346 183.738 82.2136 184.855 83.4911Z" fill="#A6ABD6"/>
<path d="M141.072 90.4561H137.884V94.4952H130.035V90.4561H117.525V85.3061L127.614 70.543H135.906L127.008 84.1752H130.277V80.4995H137.884V84.1752H141.072V90.4561Z" fill="#CED1E9"/>
<path d="M147.447 93.6286C145.768 92.5957 144.428 91.0932 143.593 89.3067C142.675 87.1767 142.201 84.8812 142.201 82.5613C142.201 80.2414 142.675 77.946 143.593 75.8159C144.428 74.0295 145.768 72.527 147.447 71.494C149.165 70.5149 151.109 70 153.086 70C155.064 70 157.007 70.5149 158.726 71.494C160.397 72.53 161.729 74.0322 162.559 75.8159C163.478 77.946 163.951 80.2414 163.951 82.5613C163.951 84.8812 163.478 87.1767 162.559 89.3067C161.729 91.0905 160.397 92.5926 158.726 93.6286C157.007 94.6078 155.064 95.1227 153.086 95.1227C151.109 95.1227 149.165 94.6078 147.447 93.6286ZM155.861 82.5613C155.861 78.5222 154.953 76.5026 153.117 76.5026C151.28 76.5026 150.373 78.5222 150.373 82.5613C150.373 86.6005 151.301 88.6201 153.117 88.6201C154.932 88.6201 155.861 86.6207 155.861 82.5613Z" fill="#CED1E9"/>
<path d="M183.341 82.5385C184.339 83.7464 184.869 85.2734 184.834 86.8403C184.842 88.2715 184.436 89.6744 183.664 90.8794C182.787 92.2272 181.54 93.293 180.073 93.9492C178.164 94.7772 176.098 95.1771 174.02 95.1206C172.323 95.1201 170.632 94.9373 168.975 94.5753C167.43 94.2599 165.941 93.7153 164.557 92.9596L167.301 86.9008C168.291 87.4821 169.357 87.9238 170.468 88.2136C171.541 88.5033 172.646 88.6527 173.757 88.6579C174.54 88.6923 175.318 88.5255 176.017 88.1732C176.275 88.0495 176.492 87.8543 176.642 87.6109C176.792 87.3675 176.869 87.086 176.864 86.7999C176.864 85.7093 175.916 85.164 174.02 85.164H170.67V80.2564L174.201 76.7423H165.626V70.6836H183.543V75.5306L179.084 80.0545C180.734 80.3994 182.228 81.2711 183.341 82.5385Z" fill="#CED1E9"/>
<path d="M185.057 177.887H178.741V181.482H185.057V177.887Z" fill="#BE1E2D"/>
<path d="M135.401 53.5206V56.0249H127.189V46.1289H135.26V48.6534H130.458V49.8045H134.635V52.2079H130.458V53.5206H135.401Z" fill="#BE1E2D"/>
<path d="M140.929 53.5377H140.022V56.0218H136.692V46.1258H141.454C142.271 46.1119 143.083 46.2702 143.835 46.5903C144.47 46.8651 145.015 47.3129 145.409 47.8829C145.786 48.4871 145.976 49.1901 145.953 49.9025C145.969 50.5549 145.801 51.1986 145.469 51.7605C145.136 52.2962 144.661 52.7294 144.097 53.0126L146.115 56.0622H142.604L140.929 53.5377ZM142.261 49.0139C141.964 48.7954 141.6 48.6882 141.232 48.7109H140.022V51.0334H141.232C141.6 51.0562 141.964 50.949 142.261 50.7305C142.373 50.6168 142.46 50.4806 142.515 50.3309C142.571 50.1812 142.594 50.0214 142.584 49.8621C142.594 49.7058 142.571 49.5491 142.515 49.4027C142.459 49.2564 142.373 49.1237 142.261 49.0139Z" fill="#BE1E2D"/>
<path d="M151.442 53.538H150.534V56.0221H147.205V46.1262H151.967C152.784 46.1098 153.596 46.2681 154.348 46.5907C154.99 46.8543 155.538 47.3046 155.921 47.8832C156.299 48.4874 156.489 49.1904 156.466 49.9028C156.478 50.5523 156.318 51.1934 156.002 51.7608C155.666 52.3014 155.183 52.7355 154.61 53.0129L156.628 56.0625H153.117L151.442 53.538ZM152.774 49.0142C152.486 48.7922 152.127 48.6843 151.765 48.7112H150.534V51.0337H151.826C152.188 51.0607 152.547 50.9528 152.834 50.7308C152.95 50.6188 153.04 50.4834 153.1 50.3337C153.159 50.1839 153.185 50.0232 153.177 49.8624C153.178 49.6998 153.141 49.5393 153.072 49.3925C153.002 49.2458 152.9 49.1165 152.774 49.0142Z" fill="#BE1E2D"/>
<path d="M160.037 55.6006C159.422 55.2723 158.88 54.8227 158.443 54.279C158.006 53.7353 157.684 53.1087 157.495 52.4369C157.307 51.7651 157.256 51.0621 157.346 50.3702C157.436 49.6783 157.665 49.0118 158.02 48.4109C158.513 47.6264 159.211 46.9912 160.037 46.5731C160.932 46.1343 161.916 45.9062 162.913 45.9062C163.909 45.9062 164.893 46.1343 165.788 46.5731C166.402 46.8994 166.944 47.3471 167.381 47.889C167.817 48.4309 168.14 49.0558 168.328 49.7259C168.517 50.3961 168.568 51.0975 168.478 51.7879C168.388 52.4783 168.159 53.1433 167.805 53.7426C167.324 54.5421 166.624 55.1869 165.788 55.6006C164.893 56.0394 163.909 56.2675 162.913 56.2675C161.916 56.2675 160.932 56.0394 160.037 55.6006ZM164.073 53.2579C164.422 53.0558 164.704 52.7533 164.88 52.3895C165.079 51.9843 165.183 51.5386 165.183 51.0869C165.183 50.6352 165.079 50.1895 164.88 49.7842C164.693 49.4145 164.403 49.1069 164.044 48.899C163.686 48.6911 163.276 48.5917 162.862 48.6129C162.465 48.6079 162.074 48.7127 161.732 48.9158C161.382 49.1179 161.101 49.4204 160.925 49.7842C160.74 50.1934 160.643 50.6375 160.643 51.0869C160.643 51.5362 160.74 51.9804 160.925 52.3895C161.101 52.7533 161.382 53.0558 161.732 53.2579C162.074 53.4611 162.465 53.5659 162.862 53.5609C163.274 53.582 163.682 53.4762 164.032 53.2579H164.073Z" fill="#BE1E2D"/>
<path d="M174.02 53.538H173.112V56.0221H169.702V46.1262H174.464C175.281 46.1098 176.093 46.2681 176.845 46.5907C177.487 46.8543 178.035 47.3046 178.418 47.8832C178.796 48.4874 178.986 49.1904 178.963 49.9028C178.975 50.5523 178.815 51.1934 178.499 51.7608C178.163 52.3014 177.68 52.7355 177.107 53.0129L179.125 56.0625H175.614L174.02 53.538ZM175.352 49.0142C175.064 48.7922 174.705 48.6843 174.343 48.7112H173.112V51.0337H174.343C174.705 51.0607 175.064 50.9528 175.352 50.7308C175.467 50.6188 175.558 50.4834 175.617 50.3337C175.676 50.1839 175.703 50.0232 175.695 49.8624C175.692 49.6982 175.653 49.5366 175.58 49.3898C175.506 49.2429 175.401 49.1145 175.271 49.0142H175.352Z" fill="#BE1E2D"/>
<path d="M85.7062 270.444C110.812 270.444 131.164 250.072 131.164 224.943C131.164 199.813 110.812 179.441 85.7062 179.441C60.6003 179.441 40.248 199.813 40.248 224.943C40.248 250.072 60.6003 270.444 85.7062 270.444Z" fill="#BE1E2D"/>
<path d="M118.998 219.266H52.4346V230.636H118.998V219.266Z" fill="#E3EEDC"/>
</svg>
