<svg width="313" height="303" viewBox="0 0 313 303" fill="none" xmlns="http://www.w3.org/2000/svg">
<path opacity="0.56" d="M153.353 283.531C223.693 283.531 280.716 226.421 280.716 155.972C280.716 85.5239 223.693 28.4141 153.353 28.4141C83.0118 28.4141 25.9893 85.5239 25.9893 155.972C25.9893 226.421 83.0118 283.531 153.353 283.531Z" fill="#4968B1" fill-opacity="0.31"/>
<path d="M194.724 158.938C195.447 158.958 196.149 159.192 196.741 159.609C197.333 160.026 197.789 160.609 198.052 161.285C198.315 161.96 198.373 162.698 198.22 163.407C198.066 164.115 197.708 164.763 197.189 165.268C196.67 165.774 196.014 166.115 195.302 166.249C194.591 166.383 193.856 166.304 193.189 166.022C192.522 165.741 191.953 165.268 191.553 164.664C191.152 164.06 190.939 163.351 190.938 162.626C190.944 162.135 191.046 161.649 191.24 161.197C191.433 160.745 191.714 160.336 192.065 159.994C192.417 159.651 192.833 159.381 193.289 159.2C193.746 159.019 194.233 158.93 194.724 158.938Z" fill="#F6F8FC"/>
<path d="M222.846 220.75V229.816L162.405 229.671V229.651L146.605 229.63L82.6045 229.465V220.75H222.846Z" fill="#3D5BA9"/>
<path d="M231.26 196.973H222.846V202.989H231.26V196.973Z" fill="#1F4495"/>
<path d="M121.733 138.847H102.683V188.297H202.274V138.847H121.733ZM222.846 109.384V196.971H82.6045V109.363L222.846 109.384Z" fill="#3D5BA9"/>
<path d="M198.488 162.624C198.508 161.87 198.303 161.126 197.899 160.489C197.495 159.851 196.91 159.35 196.219 159.047C195.528 158.745 194.763 158.656 194.022 158.793C193.28 158.929 192.596 159.283 192.057 159.811C191.518 160.339 191.149 161.016 190.997 161.756C190.845 162.495 190.916 163.263 191.203 163.962C191.489 164.66 191.977 165.257 192.604 165.676C193.232 166.095 193.969 166.316 194.723 166.313C195.212 166.318 195.698 166.227 196.151 166.045C196.605 165.862 197.019 165.592 197.368 165.249C197.718 164.907 197.997 164.499 198.189 164.049C198.381 163.598 198.483 163.114 198.488 162.624ZM202.273 138.848V188.297H102.683V160.42H104.472L121.733 138.848H202.273Z" fill="#1F4495"/>
<path d="M223.936 99.5777H81.9873C95.2976 82.8268 122.103 71.3711 152.982 71.3711C183.862 71.3711 210.606 82.8268 223.936 99.5777Z" fill="#3D5BA9"/>
<path d="M232.33 99.5781V109.365H82.6046H72.4007L72.2979 99.5781H81.9463L81.9257 99.6193L176.6 99.5781H222.682H232.33Z" fill="#1F4495"/>
<path d="M82.604 196.973V202.989H71.351L71.2275 196.973H82.604Z" fill="#1F4495"/>
<path d="M222.846 214.734V220.751H82.6045V214.734H221.077H222.846Z" fill="#1F4495"/>
<path d="M121.753 138.848L104.472 160.42H102.683V138.848H121.753Z" fill="#1F4495"/>
<path d="M176.6 99.5781L81.9258 99.6193L81.9464 99.5781H176.6Z" fill="#3D5BA9"/>
<path d="M222.846 202.988V214.732H221.077H82.6045V202.988H222.846Z" fill="#3D5BA9"/>
<path d="M230.725 214.734H222.846V220.751H230.725V214.734Z" fill="#1F4495"/>
<path d="M82.6038 214.734V220.751H70.7952L70.6924 214.734H82.6038Z" fill="#1F4495"/>
<path d="M143.087 229.609L146.605 229.63L162.404 229.671V280.398H143.087V229.609Z" fill="#1F4495"/>
<path d="M222.846 196.973V202.989H82.6045V196.973H221.612H222.846Z" fill="#1F4495"/>
<path d="M162.404 229.65V229.67L146.604 229.629L162.404 229.65Z" fill="#1F4495"/>
<path d="M201.677 116.266H102.93V125.558H201.677V116.266Z" fill="#1F4495"/>
<path d="M184.19 144.66H149.402V184.384H184.19V144.66Z" fill="#2B2C47"/>
<path d="M182.071 146.41H150.986V156.053H182.071V146.41Z" fill="#393B5E"/>
<path d="M158.845 158.609H151.583V165.883H158.845V158.609Z" fill="#393B5E"/>
<path d="M167.034 158.609H159.771V165.883H167.034V158.609Z" fill="#393B5E"/>
<path d="M175.303 158.609H168.041V165.883H175.303V158.609Z" fill="#393B5E"/>
<path d="M158.845 166.891H151.583V174.164H158.845V166.891Z" fill="#393B5E"/>
<path d="M167.034 166.891H159.771V174.164H167.034V166.891Z" fill="#393B5E"/>
<path d="M175.303 166.891H168.041V174.164H175.303V166.891Z" fill="#393B5E"/>
<path d="M158.845 175.09H151.583V182.363H158.845V175.09Z" fill="#393B5E"/>
<path d="M167.034 175.09H159.771V182.363H167.034V175.09Z" fill="#393B5E"/>
<path d="M175.303 175.09H168.041V182.363H175.303V175.09Z" fill="#393B5E"/>
<path d="M154.632 159.979V161.434H154.456V160.164H154.447L154.092 160.4V160.221L154.456 159.979H154.632Z" fill="#F1F2F2"/>
<path d="M162.657 161.434V161.306L163.138 160.78C163.194 160.719 163.24 160.665 163.277 160.62C163.313 160.574 163.34 160.531 163.358 160.49C163.376 160.45 163.385 160.407 163.385 160.363C163.385 160.311 163.372 160.267 163.348 160.23C163.324 160.192 163.29 160.163 163.248 160.143C163.206 160.123 163.159 160.113 163.106 160.113C163.05 160.113 163.002 160.124 162.96 160.147C162.919 160.17 162.887 160.202 162.864 160.243C162.842 160.284 162.831 160.333 162.831 160.388H162.663C162.663 160.303 162.683 160.228 162.722 160.164C162.761 160.099 162.815 160.049 162.883 160.013C162.951 159.977 163.027 159.959 163.112 159.959C163.197 159.959 163.273 159.977 163.339 160.013C163.404 160.049 163.456 160.098 163.493 160.159C163.531 160.22 163.549 160.288 163.549 160.363C163.549 160.416 163.54 160.468 163.52 160.52C163.501 160.57 163.468 160.627 163.421 160.689C163.374 160.751 163.309 160.827 163.226 160.917L162.899 161.266V161.277H163.575V161.434H162.657Z" fill="#F1F2F2"/>
<path d="M172.078 161.453C171.984 161.453 171.9 161.437 171.827 161.405C171.754 161.373 171.696 161.328 171.653 161.271C171.61 161.213 171.587 161.146 171.583 161.07H171.762C171.766 161.117 171.782 161.157 171.811 161.191C171.839 161.225 171.876 161.251 171.922 161.27C171.968 161.288 172.019 161.297 172.075 161.297C172.137 161.297 172.193 161.286 172.241 161.265C172.289 161.243 172.327 161.212 172.355 161.174C172.382 161.135 172.396 161.09 172.396 161.039C172.396 160.985 172.383 160.938 172.356 160.897C172.329 160.856 172.291 160.824 172.24 160.801C172.188 160.778 172.126 160.766 172.052 160.766H171.936V160.61H172.052C172.11 160.61 172.16 160.599 172.204 160.578C172.248 160.558 172.282 160.528 172.307 160.49C172.332 160.453 172.345 160.408 172.345 160.357C172.345 160.308 172.334 160.265 172.312 160.228C172.29 160.192 172.259 160.163 172.22 160.143C172.18 160.123 172.134 160.113 172.08 160.113C172.03 160.113 171.983 160.122 171.938 160.14C171.894 160.158 171.858 160.185 171.83 160.219C171.802 160.253 171.787 160.294 171.785 160.343H171.615C171.617 160.266 171.64 160.2 171.683 160.142C171.727 160.085 171.783 160.04 171.852 160.007C171.923 159.975 171.999 159.959 172.083 159.959C172.173 159.959 172.25 159.977 172.315 160.014C172.379 160.05 172.429 160.097 172.463 160.157C172.498 160.216 172.515 160.28 172.515 160.348C172.515 160.43 172.494 160.5 172.45 160.558C172.408 160.616 172.35 160.656 172.276 160.678V160.689C172.368 160.704 172.44 160.743 172.492 160.806C172.543 160.869 172.569 160.946 172.569 161.039C172.569 161.118 172.548 161.189 172.504 161.252C172.462 161.314 172.404 161.364 172.33 161.4C172.256 161.435 172.172 161.453 172.078 161.453Z" fill="#F1F2F2"/>
<path d="M153.88 169.807V169.662L154.519 168.651H154.624V168.875H154.553L154.07 169.64V169.651H154.931V169.807H153.88ZM154.565 170.105V169.763V169.696V168.651H154.732V170.105H154.565Z" fill="#F1F2F2"/>
<path d="M162.927 170.125C162.844 170.125 162.769 170.109 162.702 170.076C162.635 170.042 162.582 169.997 162.542 169.939C162.501 169.882 162.479 169.816 162.476 169.742H162.646C162.653 169.808 162.683 169.862 162.736 169.905C162.789 169.948 162.853 169.969 162.927 169.969C162.987 169.969 163.04 169.955 163.086 169.927C163.133 169.899 163.17 169.861 163.197 169.812C163.224 169.763 163.237 169.707 163.237 169.645C163.237 169.582 163.223 169.525 163.195 169.475C163.168 169.425 163.13 169.386 163.081 169.357C163.033 169.328 162.978 169.313 162.916 169.313C162.872 169.312 162.826 169.319 162.779 169.333C162.732 169.347 162.693 169.365 162.663 169.387L162.498 169.367L162.586 168.651H163.342V168.807H162.734L162.683 169.236H162.692C162.721 169.212 162.759 169.193 162.804 169.177C162.849 169.162 162.896 169.154 162.944 169.154C163.033 169.154 163.113 169.175 163.182 169.218C163.252 169.26 163.307 169.318 163.347 169.391C163.387 169.464 163.407 169.548 163.407 169.642C163.407 169.735 163.387 169.818 163.345 169.891C163.304 169.963 163.247 170.021 163.175 170.063C163.102 170.105 163.02 170.125 162.927 170.125Z" fill="#F1F2F2"/>
<path d="M171.884 170.125C171.824 170.124 171.764 170.113 171.705 170.091C171.645 170.069 171.59 170.033 171.541 169.981C171.492 169.929 171.452 169.859 171.423 169.77C171.393 169.681 171.378 169.569 171.378 169.435C171.378 169.306 171.39 169.192 171.414 169.093C171.438 168.993 171.473 168.909 171.519 168.841C171.565 168.772 171.621 168.72 171.685 168.684C171.751 168.649 171.824 168.631 171.906 168.631C171.988 168.631 172.06 168.647 172.124 168.68C172.188 168.712 172.24 168.757 172.28 168.815C172.32 168.873 172.346 168.939 172.358 169.015H172.185C172.169 168.949 172.137 168.895 172.091 168.852C172.045 168.809 171.983 168.787 171.906 168.787C171.794 168.787 171.705 168.836 171.64 168.934C171.576 169.032 171.543 169.17 171.543 169.347H171.554C171.58 169.307 171.612 169.272 171.648 169.244C171.685 169.215 171.726 169.193 171.771 169.177C171.815 169.162 171.862 169.154 171.912 169.154C171.995 169.154 172.071 169.175 172.141 169.216C172.21 169.257 172.265 169.315 172.307 169.387C172.348 169.46 172.369 169.543 172.369 169.637C172.369 169.727 172.349 169.809 172.309 169.884C172.269 169.958 172.212 170.017 172.139 170.061C172.067 170.105 171.982 170.126 171.884 170.125ZM171.884 169.969C171.943 169.969 171.997 169.954 172.044 169.924C172.092 169.895 172.129 169.855 172.157 169.804C172.185 169.754 172.199 169.698 172.199 169.637C172.199 169.577 172.185 169.522 172.158 169.473C172.132 169.423 172.095 169.383 172.048 169.354C172.002 169.325 171.949 169.31 171.889 169.31C171.844 169.31 171.802 169.319 171.763 169.337C171.725 169.355 171.691 169.379 171.661 169.409C171.632 169.44 171.61 169.475 171.593 169.515C171.576 169.555 171.568 169.596 171.568 169.64C171.568 169.697 171.582 169.751 171.609 169.801C171.636 169.852 171.674 169.892 171.721 169.923C171.769 169.954 171.823 169.969 171.884 169.969Z" fill="#F1F2F2"/>
<path d="M154.063 178.164L154.714 176.877V176.866H153.964V176.71H154.896V176.874L154.248 178.164H154.063Z" fill="#F1F2F2"/>
<path d="M163.021 178.184C162.923 178.184 162.837 178.167 162.762 178.132C162.688 178.097 162.63 178.049 162.588 177.988C162.547 177.926 162.526 177.856 162.526 177.778C162.526 177.716 162.538 177.659 162.563 177.607C162.587 177.555 162.621 177.511 162.664 177.476C162.707 177.44 162.755 177.418 162.808 177.408V177.4C162.738 177.382 162.683 177.343 162.642 177.283C162.6 177.222 162.58 177.153 162.58 177.076C162.58 177.002 162.599 176.936 162.637 176.878C162.674 176.82 162.727 176.774 162.793 176.74C162.86 176.706 162.936 176.69 163.021 176.69C163.105 176.69 163.18 176.706 163.247 176.74C163.313 176.774 163.365 176.82 163.403 176.878C163.441 176.936 163.461 177.002 163.461 177.076C163.461 177.153 163.44 177.222 163.398 177.283C163.357 177.343 163.302 177.382 163.234 177.4V177.408C163.286 177.418 163.334 177.44 163.376 177.476C163.418 177.511 163.452 177.555 163.477 177.607C163.502 177.659 163.515 177.716 163.515 177.778C163.515 177.856 163.493 177.926 163.451 177.988C163.41 178.049 163.352 178.097 163.277 178.132C163.203 178.167 163.118 178.184 163.021 178.184ZM163.021 178.028C163.087 178.028 163.143 178.017 163.191 177.996C163.239 177.974 163.276 177.944 163.302 177.906C163.328 177.867 163.341 177.821 163.342 177.769C163.341 177.714 163.327 177.666 163.299 177.624C163.271 177.581 163.233 177.548 163.185 177.524C163.137 177.5 163.082 177.488 163.021 177.488C162.959 177.488 162.903 177.5 162.855 177.524C162.806 177.548 162.768 177.581 162.74 177.624C162.713 177.666 162.699 177.714 162.7 177.769C162.699 177.821 162.712 177.867 162.737 177.906C162.763 177.944 162.801 177.974 162.849 177.996C162.897 178.017 162.954 178.028 163.021 178.028ZM163.021 177.337C163.073 177.337 163.119 177.327 163.159 177.306C163.2 177.285 163.232 177.256 163.255 177.219C163.278 177.181 163.29 177.138 163.291 177.087C163.29 177.038 163.279 176.995 163.256 176.959C163.233 176.922 163.202 176.893 163.161 176.874C163.121 176.853 163.074 176.843 163.021 176.843C162.966 176.843 162.919 176.853 162.878 176.874C162.837 176.893 162.806 176.922 162.784 176.959C162.761 176.995 162.75 177.038 162.751 177.087C162.75 177.138 162.762 177.181 162.784 177.219C162.807 177.256 162.839 177.285 162.88 177.306C162.921 177.327 162.968 177.337 163.021 177.337Z" fill="#F1F2F2"/>
<path d="M171.947 176.69C172.006 176.69 172.066 176.701 172.126 176.724C172.185 176.746 172.24 176.783 172.289 176.835C172.338 176.886 172.378 176.955 172.408 177.044C172.437 177.133 172.452 177.244 172.452 177.377C172.452 177.506 172.44 177.621 172.415 177.722C172.391 177.821 172.356 177.906 172.31 177.974C172.265 178.043 172.209 178.095 172.144 178.131C172.079 178.166 172.006 178.184 171.924 178.184C171.842 178.184 171.77 178.168 171.706 178.136C171.642 178.103 171.59 178.058 171.55 178C171.509 177.942 171.484 177.874 171.472 177.798H171.646C171.661 177.864 171.692 177.92 171.739 177.963C171.785 178.006 171.847 178.028 171.924 178.028C172.036 178.028 172.125 177.979 172.19 177.881C172.255 177.783 172.288 177.644 172.288 177.465H172.276C172.25 177.505 172.218 177.539 172.182 177.568C172.145 177.597 172.105 177.619 172.06 177.635C172.016 177.651 171.968 177.658 171.918 177.658C171.835 177.658 171.758 177.638 171.689 177.597C171.62 177.555 171.564 177.498 171.523 177.425C171.481 177.353 171.461 177.269 171.461 177.175C171.461 177.086 171.481 177.005 171.521 176.931C171.561 176.857 171.617 176.798 171.69 176.754C171.762 176.71 171.848 176.688 171.947 176.69ZM171.947 176.846C171.887 176.846 171.833 176.861 171.785 176.891C171.738 176.92 171.7 176.96 171.672 177.01C171.645 177.06 171.631 177.115 171.631 177.175C171.631 177.236 171.645 177.291 171.671 177.341C171.698 177.39 171.735 177.429 171.781 177.459C171.828 177.488 171.881 177.502 171.941 177.502C171.986 177.502 172.028 177.493 172.067 177.476C172.105 177.458 172.139 177.433 172.168 177.403C172.198 177.371 172.221 177.336 172.237 177.297C172.254 177.257 172.262 177.216 172.262 177.173C172.262 177.116 172.248 177.062 172.221 177.013C172.194 176.963 172.156 176.923 172.109 176.892C172.061 176.861 172.007 176.846 171.947 176.846Z" fill="#F1F2F2"/>
<path d="M143.148 90.4716H139.898V94.5924H131.875V90.4716H119.182V85.2177L129.571 70.1562H138.026L128.809 84.0432H132.163V80.3552H139.939V84.0844H143.19L143.148 90.4716Z" fill="#A6ABD6"/>
<path d="M149.629 93.7047C147.925 92.6478 146.566 91.1153 145.72 89.2955C144.783 87.1189 144.3 84.7737 144.3 82.4035C144.3 80.0333 144.783 77.6881 145.72 75.5115C146.566 73.6918 147.925 72.1593 149.629 71.1023C151.381 70.1034 153.362 69.5781 155.379 69.5781C157.395 69.5781 159.376 70.1034 161.129 71.1023C162.839 72.1632 164.21 73.6935 165.078 75.5115C166.015 77.6881 166.498 80.0333 166.498 82.4035C166.498 84.7737 166.015 87.1189 165.078 89.2955C164.216 91.1108 162.852 92.6408 161.149 93.7047C159.397 94.7036 157.415 95.2289 155.399 95.2289C153.383 95.2289 151.401 94.7036 149.649 93.7047H149.629ZM158.187 82.4138C158.187 78.2931 157.24 76.2327 155.389 76.2327C153.537 76.2327 152.591 78.2931 152.591 82.4138C152.591 86.5346 153.517 88.595 155.389 88.595C157.261 88.595 158.187 86.5346 158.187 82.4138Z" fill="#A6ABD6"/>
<path d="M179.747 70.1562V94.7778H171.518V76.3786H167.403V70.1975L179.747 70.1562Z" fill="#A6ABD6"/>
<path d="M141.4 89.8935H138.15V94.0143H130.106V89.8935H117.434V84.6395L127.72 69.5781H136.278L127.041 83.4857H130.353V79.7358H138.129V83.4857H141.38L141.4 89.8935Z" fill="#CED1E9"/>
<path d="M147.88 93.1294C146.176 92.0725 144.817 90.54 143.971 88.7202C143.035 86.5471 142.552 84.2053 142.552 81.8385C142.552 79.4718 143.035 77.1299 143.971 74.9568C144.817 73.1371 146.176 71.6046 147.88 70.5476C149.632 69.5487 151.614 69.0234 153.63 69.0234C155.646 69.0234 157.627 69.5487 159.38 70.5476C161.087 71.6061 162.452 73.1376 163.309 74.9568C164.245 77.1299 164.728 79.4718 164.728 81.8385C164.728 84.2053 164.245 86.5471 163.309 88.7202C162.457 90.5428 161.091 92.0756 159.38 93.1294C157.627 94.1284 155.646 94.6536 153.63 94.6536C151.614 94.6536 149.632 94.1284 147.88 93.1294ZM156.438 81.8385C156.438 77.7178 155.492 75.6574 153.64 75.6574C151.789 75.6574 150.842 77.7178 150.842 81.8385C150.842 85.9593 151.768 88.0197 153.64 88.0197C155.512 88.0197 156.438 85.9799 156.438 81.8385Z" fill="#CED1E9"/>
<path d="M178.018 69.5781V94.0967H169.789V75.8211H165.675V69.6399L178.018 69.5781Z" fill="#CED1E9"/>
<path d="M183.018 178.695H176.023V182.363H183.018V178.695Z" fill="#BE1E2D"/>
<path d="M132.924 51.8183V54.3732H124.551V44.2773H132.78V46.8528H127.883V48.0272H132.163V50.4791H127.883V51.8183H132.924Z" fill="#BE1E2D"/>
<path d="M138.56 51.8398H137.635V54.3741H134.22V44.2782H139.075C139.908 44.264 140.735 44.4255 141.502 44.7521C142.144 45.0323 142.685 45.5021 143.052 46.0987C143.42 46.6952 143.597 47.3899 143.56 48.0899C143.575 48.7556 143.404 49.4122 143.066 49.9855C142.726 50.532 142.242 50.974 141.667 51.2629L143.724 54.3741H140.268L138.56 51.8398ZM139.918 47.2246C139.617 46.9984 139.245 46.8887 138.869 46.9155H137.635V49.2849H138.869C139.245 49.3118 139.617 49.202 139.918 48.9759C140.032 48.8599 140.121 48.7209 140.178 48.5682C140.234 48.4155 140.258 48.2525 140.247 48.0899C140.258 47.9305 140.234 47.7706 140.177 47.6213C140.12 47.472 140.032 47.3367 139.918 47.2246Z" fill="#BE1E2D"/>
<path d="M149.279 51.8401H148.353V54.3744H144.959V44.2785H149.814C150.648 44.2618 151.475 44.4234 152.242 44.7524C152.896 45.0214 153.455 45.4807 153.846 46.0711C154.231 46.6875 154.425 47.4047 154.402 48.1314C154.414 48.7941 154.251 49.4481 153.929 50.027C153.585 50.5785 153.093 51.0214 152.509 51.3044L154.566 54.4156H151.007L149.279 51.8401ZM150.678 47.2249C150.385 46.9984 150.019 46.8883 149.649 46.9158H148.395V49.2853H149.649C150.019 49.3127 150.385 49.2027 150.678 48.9762C150.796 48.862 150.888 48.7238 150.949 48.571C151.009 48.4183 151.036 48.2543 151.028 48.0902C151.036 47.9292 151.008 47.7685 150.948 47.619C150.888 47.4696 150.795 47.3351 150.678 47.2249Z" fill="#BE1E2D"/>
<path d="M158.063 53.9407C157.217 53.5103 156.505 52.8544 156.006 52.0451C155.508 51.2265 155.252 50.2837 155.265 49.3254C155.249 48.3732 155.506 47.4362 156.006 46.6263C156.505 45.817 157.217 45.1611 158.063 44.7307C158.972 44.2834 159.972 44.0508 160.985 44.0508C161.997 44.0508 162.997 44.2834 163.906 44.7307C164.744 45.1676 165.444 45.828 165.931 46.6388C166.417 47.4497 166.671 48.3795 166.662 49.3254C166.676 50.2837 166.42 51.2265 165.922 52.0451C165.431 52.8608 164.717 53.5185 163.865 53.9407C162.956 54.388 161.956 54.6206 160.943 54.6206C159.931 54.6206 158.931 54.388 158.022 53.9407H158.063ZM162.178 51.5506C162.534 51.3444 162.821 51.0358 163.001 50.6646C163.204 50.2512 163.31 49.7965 163.31 49.3357C163.31 48.8749 163.204 48.4202 163.001 48.0068C162.817 47.6457 162.538 47.3427 162.193 47.1317C161.848 46.9206 161.451 46.8099 161.046 46.8117C160.641 46.8066 160.242 46.9136 159.894 47.1208C159.538 47.327 159.251 47.6356 159.071 48.0068C158.882 48.4242 158.784 48.8773 158.784 49.3357C158.784 49.7941 158.882 50.2472 159.071 50.6646C159.251 51.0358 159.538 51.3444 159.894 51.5506C160.242 51.7578 160.641 51.8648 161.046 51.8597C161.428 51.8448 161.799 51.7235 162.116 51.5094L162.178 51.5506Z" fill="#BE1E2D"/>
<path d="M172.218 51.8398H171.251V54.3741H167.897V44.2782H172.753C173.593 44.2641 174.426 44.4255 175.201 44.7521C175.846 45.0267 176.397 45.4852 176.785 46.0707C177.176 46.6854 177.376 47.4024 177.361 48.1311C177.376 48.7967 177.205 49.4534 176.867 50.0267C176.524 50.5782 176.032 51.0211 175.448 51.3041L177.505 54.4153H173.946L172.218 51.8398ZM173.575 47.2245C173.282 46.9981 172.916 46.888 172.547 46.9155H171.251V49.2849H172.506C172.875 49.3124 173.241 49.2023 173.534 48.9759C173.652 48.8616 173.744 48.7235 173.805 48.5707C173.865 48.4179 173.892 48.254 173.884 48.0899C173.897 47.932 173.876 47.7731 173.823 47.6238C173.77 47.4746 173.685 47.3384 173.575 47.2245Z" fill="#BE1E2D"/>
<path d="M154.275 152.114C154.071 152.114 153.901 152.074 153.765 151.994C153.629 151.914 153.533 151.803 153.477 151.661C153.423 151.517 153.415 151.348 153.453 151.154L153.687 149.978H154.176L153.942 151.145C153.924 151.239 153.919 151.321 153.927 151.391C153.935 151.461 153.955 151.519 153.987 151.565C154.021 151.611 154.067 151.645 154.125 151.667C154.183 151.689 154.251 151.7 154.329 151.7C154.427 151.7 154.512 151.681 154.584 151.643C154.656 151.605 154.716 151.545 154.764 151.463C154.812 151.381 154.849 151.275 154.875 151.145L155.109 149.978H155.586L155.349 151.175C155.287 151.485 155.166 151.719 154.986 151.877C154.806 152.035 154.569 152.114 154.275 152.114ZM155.649 152.078L156.069 149.978H156.471L157.374 151.499L157.215 151.49L157.515 149.978H157.995L157.575 152.078H157.176L156.27 150.557L156.432 150.566L156.129 152.078H155.649ZM157.796 152.078L159.152 149.978H159.635L160.151 152.078H159.665L159.257 150.218H159.449L158.315 152.078H157.796ZM158.357 151.628L158.555 151.259H159.638L159.695 151.628H158.357ZM161.315 152.114C161.111 152.114 160.941 152.074 160.805 151.994C160.669 151.914 160.573 151.803 160.517 151.661C160.463 151.517 160.455 151.348 160.493 151.154L160.727 149.978H161.216L160.982 151.145C160.964 151.239 160.959 151.321 160.967 151.391C160.975 151.461 160.995 151.519 161.027 151.565C161.061 151.611 161.107 151.645 161.165 151.667C161.223 151.689 161.291 151.7 161.369 151.7C161.467 151.7 161.552 151.681 161.624 151.643C161.696 151.605 161.756 151.545 161.804 151.463C161.852 151.381 161.889 151.275 161.915 151.145L162.149 149.978H162.626L162.389 151.175C162.327 151.485 162.206 151.719 162.026 151.877C161.846 152.035 161.609 152.114 161.315 152.114ZM163.089 152.078L163.428 150.374H162.756L162.837 149.978H164.667L164.586 150.374H163.917L163.575 152.078H163.089ZM166.368 149.978H166.854L166.434 152.078H165.948L166.368 149.978ZM164.997 152.078H164.508L164.928 149.978H165.417L164.997 152.078ZM166.158 151.217H165.135L165.216 150.806H166.239L166.158 151.217ZM168.02 152.114C167.808 152.114 167.625 152.076 167.471 152C167.319 151.922 167.202 151.815 167.12 151.679C167.038 151.541 166.997 151.382 166.997 151.202C166.997 151.022 167.028 150.856 167.09 150.704C167.152 150.55 167.24 150.417 167.354 150.305C167.47 150.191 167.607 150.102 167.765 150.038C167.925 149.974 168.102 149.942 168.296 149.942C168.508 149.942 168.69 149.981 168.842 150.059C168.996 150.135 169.114 150.242 169.196 150.38C169.278 150.516 169.319 150.674 169.319 150.854C169.319 151.034 169.288 151.201 169.226 151.355C169.164 151.507 169.075 151.64 168.959 151.754C168.845 151.866 168.708 151.954 168.548 152.018C168.39 152.082 168.214 152.114 168.02 152.114ZM168.062 151.7C168.18 151.7 168.286 151.679 168.38 151.637C168.476 151.593 168.557 151.533 168.623 151.457C168.689 151.381 168.739 151.294 168.773 151.196C168.809 151.096 168.827 150.991 168.827 150.881C168.827 150.777 168.805 150.686 168.761 150.608C168.717 150.528 168.652 150.466 168.566 150.422C168.482 150.378 168.378 150.356 168.254 150.356C168.136 150.356 168.03 150.378 167.936 150.422C167.842 150.464 167.761 150.523 167.693 150.599C167.627 150.675 167.576 150.763 167.54 150.863C167.506 150.961 167.489 151.065 167.489 151.175C167.489 151.279 167.511 151.371 167.555 151.451C167.601 151.529 167.666 151.59 167.75 151.634C167.836 151.678 167.94 151.7 168.062 151.7ZM169.463 152.078L169.883 149.978H170.738C171 149.978 171.202 150.035 171.344 150.149C171.488 150.263 171.56 150.423 171.56 150.629C171.56 150.805 171.518 150.958 171.434 151.088C171.352 151.216 171.234 151.315 171.08 151.385C170.928 151.455 170.748 151.49 170.54 151.49H169.856L170.111 151.277L169.952 152.078H169.463ZM170.813 152.078L170.384 151.316H170.894L171.326 152.078H170.813ZM170.099 151.334L169.931 151.103H170.558C170.72 151.103 170.845 151.067 170.933 150.995C171.023 150.921 171.068 150.814 171.068 150.674C171.068 150.572 171.033 150.497 170.963 150.449C170.895 150.399 170.799 150.374 170.675 150.374H170.084L170.339 150.137L170.099 151.334ZM171.669 152.078L172.089 149.978H172.578L172.158 152.078H171.669ZM172.515 152.078L172.578 151.763L174.174 150.197L174.216 150.374H172.887L172.968 149.978H174.732L174.669 150.293L173.076 151.859L173.034 151.682H174.432L174.351 152.078H172.515ZM175.365 150.824H176.376L176.301 151.202H175.29L175.365 150.824ZM175.227 151.688H176.373L176.292 152.078H174.666L175.086 149.978H176.673L176.592 150.368H175.491L175.227 151.688ZM176.678 152.078L177.098 149.978H177.977C178.193 149.978 178.378 150.014 178.532 150.086C178.688 150.156 178.807 150.257 178.889 150.389C178.971 150.519 179.012 150.674 179.012 150.854C179.012 151.04 178.98 151.208 178.916 151.358C178.854 151.508 178.765 151.637 178.649 151.745C178.533 151.851 178.395 151.933 178.235 151.991C178.075 152.049 177.898 152.078 177.704 152.078H176.678ZM177.245 151.679H177.719C177.889 151.679 178.033 151.644 178.151 151.574C178.271 151.504 178.362 151.409 178.424 151.289C178.488 151.169 178.52 151.033 178.52 150.881C178.52 150.777 178.498 150.688 178.454 150.614C178.41 150.538 178.343 150.48 178.253 150.44C178.165 150.398 178.055 150.377 177.923 150.377H177.506L177.245 151.679Z" fill="white"/>
</svg>
