<svg width="57" height="75" viewBox="0 0 57 75" fill="none" xmlns="http://www.w3.org/2000/svg">
<path fill-rule="evenodd" clip-rule="evenodd" d="M9.75 0H34.5609C35.804 0.000265488 36.9961 0.4943 37.875 1.37344L55.2516 18.75C56.1307 19.6289 56.6247 20.821 56.625 22.0641V65.625C56.625 68.1114 55.6373 70.496 53.8791 72.2541C52.121 74.0123 49.7364 75 47.25 75H9.75C7.2636 75 4.87903 74.0123 3.12087 72.2541C1.36272 70.496 0.375 68.1114 0.375 65.625V9.375C0.375 6.8886 1.36272 4.50403 3.12087 2.74587C4.87903 0.987721 7.2636 0 9.75 0V0ZM35.5312 7.03125V16.4062C35.5312 17.6495 36.0251 18.8417 36.9042 19.7208C37.7833 20.5999 38.9755 21.0938 40.2188 21.0938H49.5938L35.5312 7.03125ZM10.5234 64.0687C10.9453 64.9125 11.6016 65.6766 12.5766 66.0328C13.5469 66.3844 14.5078 66.2203 15.2953 65.8922C16.7859 65.2828 18.2719 63.8484 19.6359 62.2078C21.1969 60.3281 22.8375 57.8625 24.4219 55.1297C27.4806 54.2231 30.6129 53.5863 33.7828 53.2266C35.1891 55.0219 36.6422 56.5688 38.0484 57.6797C39.3609 58.7109 40.875 59.5688 42.4266 59.6344C43.2717 59.6762 44.1085 59.4498 44.8172 58.9875C45.5438 58.5141 46.0828 57.8297 46.4766 57.0375C46.8984 56.1891 47.1562 55.3031 47.1234 54.3984C47.0937 53.5065 46.7634 52.6508 46.1859 51.9703C45.1266 50.7047 43.3922 50.0953 41.6859 49.7906C39.6161 49.47 37.5161 49.3914 35.4281 49.5562C33.665 47.0637 32.1276 44.4188 30.8344 41.6531C32.0063 38.5594 32.8828 35.6344 33.2719 33.2438C33.4406 32.2219 33.5297 31.2469 33.4969 30.3656C33.491 29.4909 33.2875 28.6288 32.9016 27.8438C32.6792 27.4105 32.3632 27.0322 31.9764 26.7363C31.5897 26.4403 31.1419 26.2342 30.6656 26.1328C29.7188 25.9312 28.7437 26.1328 27.8484 26.4937C26.0813 27.1969 25.1484 28.6969 24.7969 30.3516C24.4547 31.9453 24.6094 33.8016 25.0125 35.6766C25.425 37.5797 26.1281 39.6516 27.0281 41.7469C25.5885 45.3272 23.9259 48.8137 22.05 52.1859C19.6343 52.946 17.3057 53.9595 15.1031 55.2094C13.3688 56.2406 11.8266 57.4594 10.8984 58.8984C9.91406 60.4266 9.60938 62.2453 10.5234 64.0687Z" fill="#F92C39" fill-opacity="0.75"/>
</svg>
